<svg width="44" height="45" viewBox="0 0 44 45" fill="none" xmlns="http://www.w3.org/2000/svg">
<g clip-path="url(#clip0_477_1479)">
<path d="M13.6669 17.0459V21.8181H11V17.0451C11 15.9385 10.142 15.0383 9.06893 15.0012C9.0459 14.9994 9.02286 14.9994 8.99983 14.9994C8.44734 14.9994 7.9471 15.2285 7.58582 15.5979C7.22368 15.9683 6.99964 16.4799 6.99964 17.045V21.818H4.33282V17.0458C4.33282 14.4143 6.41535 12.28 8.9866 12.2728H8.99983C10.2881 12.2728 11.4551 12.8071 12.2998 13.6709C13.1445 14.5348 13.6669 15.7284 13.6669 17.0459Z" fill="#EFB899"/>
<path d="M9.06893 15.0012C9.0459 14.9993 9.02286 14.9993 8.99983 14.9993C8.44734 14.9993 7.9471 15.2285 7.58582 15.5979C7.22368 15.9682 6.99964 16.4799 6.99964 17.0449V21.818H4.33282V17.0458C4.33282 14.4142 6.41535 12.2799 8.9866 12.2727C8.63236 12.672 8.23671 13.8858 9.06893 15.0012Z" fill="#E4996D"/>
<path d="M43 8.02399C43 8.28116 42.9291 8.52743 42.8016 8.73846C42.6741 8.94948 42.4909 9.12421 42.266 9.23926L40.1622 10.315C39.4291 10.6899 38.9058 11.3899 38.7455 12.2122L37.5609 18.2594H27.1014L25.9212 12.2122C25.7609 11.3899 25.2376 10.69 24.5045 10.315L22.4007 9.23926C21.9509 9.00925 21.6667 8.53833 21.6667 8.02399C21.6667 6.18216 23.04 4.64451 24.833 4.47787L25.7547 4.39183C26.5082 4.32213 27.2201 4.07937 27.8452 3.69995H36.8216C37.4467 4.07937 38.1586 4.32204 38.9121 4.39183L39.8338 4.47787C41.6267 4.64451 43 6.18216 43 8.02399Z" fill="#BD9CDE"/>
<path d="M24.5044 10.315L22.4006 9.23926C21.9508 9.00925 21.6666 8.53833 21.6666 8.02399C21.6666 6.18216 23.0399 4.64451 24.8329 4.47787L25.7546 4.39183C26.5081 4.32213 27.22 4.07937 27.8451 3.69995H32.7583C31.2248 6.74079 29.3353 11.6279 28.5712 18.2592H27.1014L25.9211 12.212C25.7608 11.3899 25.2375 10.69 24.5044 10.315Z" fill="#A57CD2"/>
<path d="M36.8215 3.70002L33.3259 7.72154C32.7973 8.32913 31.8694 8.32913 31.3408 7.72154L31.1186 7.46613L29.9613 4.54491L27.8452 3.70002C28.8554 3.08698 29.6435 2.11535 30.0304 0.929092C30.1207 0.651094 30.2933 0.419238 30.5138 0.256289C30.7351 0.0932519 31.0052 0 31.2903 0H33.3763C33.8518 0 34.283 0.259014 34.5185 0.665596C34.5663 0.748037 34.6062 0.83584 34.6363 0.929092C34.9488 1.88982 35.5252 2.7094 36.2699 3.31251C36.4443 3.45375 36.6293 3.58321 36.8215 3.70002Z" fill="#7B849B"/>
<path d="M34.5185 0.665596C33.8067 1.7151 32.413 4.00069 31.1185 7.46622L27.8452 3.70011C28.8554 3.08707 29.6435 2.11544 30.0304 0.92918C30.1207 0.651182 30.2933 0.419326 30.5138 0.256377C30.7351 0.093252 31.0052 0 31.2903 0H33.3763C33.8518 0 34.283 0.259014 34.5185 0.665596Z" fill="#5D6A85"/>
<path d="M37.9539 44.0881C37.7671 44.6342 37.2642 45 36.6993 45H32.9974L32.3334 44.6469L31.6692 45H27.9672C27.4024 45 26.8994 44.6342 26.7126 44.0881C21.1044 27.7114 27.0332 21.1363 27.0332 21.1363H37.6334C37.6334 21.1363 43.5621 27.7114 37.9539 44.0881Z" fill="#7B849B"/>
<path d="M31.6692 45H27.9672C27.4024 45 26.8994 44.6342 26.7126 44.0881C21.1044 27.7114 27.0332 21.1363 27.0332 21.1363H28.3215C27.9354 27.6625 28.6703 35.6431 31.6692 45Z" fill="#5D6A85"/>
<path d="M38.3329 19.0852V20.4598C38.3329 21.2096 37.7388 21.8181 37.0047 21.8181H28.2851L26.7746 21.4713C26.5037 21.2223 26.3337 20.861 26.3337 20.4598V19.0852C26.3337 18.5699 26.6143 18.1207 27.0287 17.8907H27.0296L28.6358 17.7268H37.0048C37.7388 17.7269 38.3329 18.3354 38.3329 19.0852Z" fill="#EFB899"/>
<path d="M27.6618 17.7269H28.6358C28.472 19.0218 28.3516 20.3865 28.2851 21.8182H27.6618C26.9278 21.8182 26.3337 21.2096 26.3337 20.4598V19.0852C26.3337 18.3354 26.9278 17.7269 27.6618 17.7269Z" fill="#E4996D"/>
<path d="M34.7017 29.201L32.9973 30.3637V45H31.6692V30.3637L29.9648 29.201C29.6602 28.9937 29.5769 28.5717 29.7806 28.2593C29.9843 27.9478 30.3969 27.8636 30.7014 28.0709L32.3332 29.1838L33.965 28.0709C34.2696 27.8636 34.6822 27.9478 34.8858 28.2593C35.0896 28.5717 35.0064 28.9936 34.7017 29.201Z" fill="#5D6A85"/>
<path d="M33.0442 22.5H31.6223C30.9104 22.5 30.3333 21.9097 30.3333 21.1816V18.3638C30.3333 17.6357 30.9104 17.0454 31.6223 17.0454H33.0442C33.7561 17.0454 34.3333 17.6357 34.3333 18.3638V21.1816C34.3333 21.9097 33.7561 22.5 33.0442 22.5Z" fill="#F8EA69"/>
<path d="M16.5108 23.1819L8.99979 23.9063L7.87444 23.7976L1.48877 23.1819L1.69768 21.4704C1.86329 20.1111 2.99397 19.0906 4.3327 19.0906H13.6668C15.0065 19.0906 16.1362 20.1112 16.3018 21.4704L16.5108 23.1819Z" fill="#E4996D"/>
<path d="M9.27608 19.0906C8.71646 19.9962 7.95591 21.6126 7.87444 23.7976L1.48877 23.1819L1.69768 21.4704C1.86329 20.1111 2.99397 19.0906 4.3327 19.0906H9.27608Z" fill="#D97C41"/>
<path d="M14.3363 29.9997H3.66432C2.06614 29.9997 0.830102 28.5681 1.02845 26.9462L1.4889 23.1819L4.24698 23.7976L7.91616 23.1819H16.5109L16.9714 26.9462C17.1697 28.5681 15.9336 29.9997 14.3363 29.9997Z" fill="#EFB899"/>
<path d="M9.39652 29.9997H3.66432C2.06614 29.9997 0.830102 28.5681 1.02845 26.9462L1.4889 23.1819H7.91616C7.73286 25.0274 8.02058 27.3329 9.39652 29.9997Z" fill="#E4996D"/>
<path d="M6.99968 36.8185V42.2725C6.99968 43.4895 6.22058 44.52 5.14472 44.8714C4.88889 44.9548 4.61612 45 4.33279 45C2.86033 45 1.66675 43.7794 1.66675 42.2725V36.8185C1.66675 35.3117 2.86025 34.0909 4.33279 34.0909C4.50011 34.0909 4.66485 34.1063 4.82332 34.1381C5.36344 34.2395 5.84597 34.5084 6.21877 34.8897C6.70131 35.3832 6.99968 36.0651 6.99968 36.8185Z" fill="#7B849B"/>
<path d="M5.14473 44.8714C4.88889 44.9548 4.61612 45 4.33279 45C2.86033 45 1.66675 43.7794 1.66675 42.2725V36.8185C1.66675 35.3117 2.86025 34.0909 4.33279 34.0909C4.50011 34.0909 4.66485 34.1063 4.82332 34.1381C4.16719 35.2138 2.14052 39.3059 5.14473 44.8714Z" fill="#5D6A85"/>
<path d="M7.66638 39.5405V40.9142C7.66638 41.6649 7.07229 42.2726 6.33822 42.2726H4.04858L1.66768 42.0924H1.66683C1.26842 41.8588 1.00012 41.4186 1.00012 40.9143V39.5406C1.00012 39.0362 1.26842 38.5961 1.66683 38.3625H1.66768L3.57661 38.1823H6.33822C7.07229 38.1821 7.66638 38.7898 7.66638 39.5405Z" fill="#F8EA69"/>
<path d="M4.04861 42.2725H2.32823C1.59423 42.2725 1.00006 41.6649 1.00006 40.9141V39.5404C1.00006 38.7897 1.59415 38.1821 2.32823 38.1821H3.57664C3.48365 39.3558 3.58016 40.7331 4.04861 42.2725Z" fill="#F1E12B"/>
<path d="M6.92273 6.44889L6.92711 6.44001L5.7392 5.83251C5.77392 5.76149 6.61696 4.09351 8.99984 4.09351C11.3829 4.09351 12.2258 5.76158 12.2604 5.8326L11.0725 6.44001L11.0769 6.44889C11.0554 6.40819 10.5337 5.45186 8.99975 5.45186C7.46577 5.45186 6.94421 6.40819 6.92273 6.44889Z" fill="#7B849B"/>
<path d="M7.66641 5.45405C7.66641 6.46101 6.95631 7.29685 6.02045 7.4671C5.90538 7.48881 5.7867 7.4997 5.6663 7.4997C4.56218 7.4997 3.66705 6.58424 3.66705 5.45405C3.66705 4.32483 4.56226 3.40936 5.6663 3.40936C5.77785 3.40936 5.88768 3.41842 5.9939 3.4374C6.94299 3.59683 7.66641 4.439 7.66641 5.45405Z" fill="#F8EA69"/>
<path d="M6.02045 7.4671C5.90538 7.48881 5.7867 7.4997 5.6663 7.4997C4.56218 7.4997 3.66705 6.58424 3.66705 5.45405C3.66705 4.32483 4.56226 3.40936 5.6663 3.40936C5.77785 3.40936 5.88768 3.41842 5.9939 3.4374C5.47406 3.97441 4.42313 5.45133 6.02045 7.4671Z" fill="#F1E12B"/>
<path d="M14.3327 5.45405C14.3327 6.46101 13.6226 7.29685 12.6867 7.4671C12.5716 7.48881 12.453 7.4997 12.3326 7.4997C11.2284 7.4997 10.3333 6.58424 10.3333 5.45405C10.3333 4.32483 11.2285 3.40936 12.3326 3.40936C12.4441 3.40936 12.5539 3.41842 12.6602 3.4374C13.6093 3.59683 14.3327 4.439 14.3327 5.45405Z" fill="#F8EA69"/>
<path d="M12.6867 7.4671C12.5716 7.48881 12.453 7.4997 12.3326 7.4997C11.2284 7.4997 10.3333 6.58424 10.3333 5.45405C10.3333 4.32483 11.2285 3.40936 12.3326 3.40936C12.4441 3.40936 12.5539 3.41842 12.6602 3.4374C12.1404 3.97441 11.0894 5.45133 12.6867 7.4671Z" fill="#F1E12B"/>
<path d="M16.3328 36.8185V42.2725C16.3328 43.4895 15.5536 44.52 14.4778 44.8714C14.222 44.9548 13.9492 45 13.6659 45C12.1934 45 10.9998 43.7794 10.9998 42.2725V36.8185C10.9998 35.3117 12.1934 34.0909 13.6659 34.0909C13.8332 34.0909 13.9979 34.1063 14.1564 34.1381C14.6965 34.2395 15.179 34.5084 15.5518 34.8897C16.0344 35.3832 16.3328 36.0651 16.3328 36.8185Z" fill="#7B849B"/>
<path d="M14.4779 44.8714C14.2221 44.9548 13.9493 45 13.666 45C12.1935 45 10.9999 43.7794 10.9999 42.2725V36.8185C10.9999 35.3117 12.1935 34.0909 13.666 34.0909C13.8333 34.0909 13.998 34.1063 14.1565 34.1381C13.5004 35.2138 11.4736 39.3059 14.4779 44.8714Z" fill="#5D6A85"/>
<path d="M16.9997 39.5405V40.9142C16.9997 41.6649 16.4055 42.2726 15.6715 42.2726H13.3818L11.0009 42.0924H11C10.6016 41.8579 10.3333 41.4186 10.3333 40.9143V39.5406C10.3333 39.0362 10.6016 38.597 11 38.3625H11.0009L12.9098 38.1823H15.6714C16.4055 38.1821 16.9997 38.7898 16.9997 39.5405Z" fill="#F8EA69"/>
<path d="M13.3817 42.2725H11.6613C10.9273 42.2725 10.3331 41.6649 10.3331 40.9141V39.5404C10.3331 38.7897 10.9272 38.1821 11.6613 38.1821H12.9097C12.8168 39.3558 12.9133 40.7331 13.3817 42.2725Z" fill="#F1E12B"/>
</g>
<defs>
<clipPath id="clip0_477_1479">
<rect width="44" height="45" fill="white"/>
</clipPath>
</defs>
</svg>
