<svg width="47" height="47" viewBox="0 0 47 47" fill="none" xmlns="http://www.w3.org/2000/svg">
<g clip-path="url(#clip0_477_1367)">
<path d="M18.1905 0.635254V11.0156H6.60939C6.02523 11.0161 5.46513 11.2484 5.05206 11.6614C4.639 12.0745 4.40673 12.6346 4.40627 13.2188V29.9625H0.635254V0.635254H18.1905Z" fill="#81D9E3"/>
<path d="M20.5625 11.0157H27.5391C28.1232 11.0163 28.6832 11.2486 29.0962 11.6616C29.5092 12.0747 29.7415 12.6347 29.7422 13.2188V20.5625H44.0046V4.87708H20.5625V11.0157Z" fill="#9387A2"/>
<path d="M34.6801 23.2334H44.8821V29.8883H34.6801V23.2334Z" fill="#E1EBF4"/>
<path d="M29.7422 23.0887H35.026V29.7422H29.7422V23.0887Z" fill="#81D9E3"/>
<path d="M6.63361 13.0678H27.6958V30.181H6.63361V13.0678Z" fill="#FFDB80"/>
<path d="M39.2891 11.3828H38.1875V10.2812C38.1876 10.0884 38.1496 9.89734 38.0758 9.71912C38.002 9.5409 37.8938 9.37896 37.7574 9.24257C37.621 9.10617 37.4591 8.99798 37.2809 8.92419C37.1027 8.8504 36.9116 8.81245 36.7188 8.8125H35.25C35.0571 8.81245 34.8661 8.8504 34.6879 8.92419C34.5096 8.99798 34.3477 9.10617 34.2113 9.24257C34.0749 9.37896 33.9667 9.5409 33.8929 9.71912C33.8191 9.89734 33.7812 10.0884 33.7812 10.2812V11.3828H32.6797C32.4868 11.3828 32.2958 11.4207 32.1176 11.4945C31.9393 11.5683 31.7774 11.6765 31.641 11.8129C31.5046 11.9493 31.3964 12.1112 31.3226 12.2894C31.2488 12.4677 31.2109 12.6587 31.2109 12.8516V14.3203C31.2109 14.5132 31.2488 14.7042 31.3226 14.8824C31.3964 15.0607 31.5046 15.2226 31.641 15.359C31.7774 15.4954 31.9393 15.6036 32.1176 15.6774C32.2958 15.7512 32.4868 15.7891 32.6797 15.7891H33.7812V16.8906C33.7812 17.0835 33.8192 17.2745 33.8929 17.4528C33.9667 17.631 34.0749 17.7929 34.2113 17.9293C34.3477 18.0657 34.5096 18.1739 34.6879 18.2477C34.8661 18.3215 35.0571 18.3594 35.25 18.3594H36.7188C36.9116 18.3594 37.1027 18.3215 37.2809 18.2477C37.4591 18.1739 37.621 18.0657 37.7574 17.9293C37.8938 17.7929 38.002 17.631 38.0758 17.4528C38.1496 17.2745 38.1876 17.0835 38.1875 16.8906V15.7891H39.2891C39.482 15.7891 39.673 15.7512 39.8512 15.6774C40.0294 15.6036 40.1913 15.4954 40.3277 15.359C40.4641 15.2226 40.5723 15.0607 40.6461 14.8824C40.7199 14.7042 40.7579 14.5132 40.7578 14.3203V12.8516C40.7579 12.6587 40.7199 12.4677 40.6461 12.2894C40.5723 12.1112 40.4641 11.9493 40.3277 11.8129C40.1913 11.6765 40.0294 11.5683 39.8512 11.4945C39.673 11.4207 39.482 11.3828 39.2891 11.3828ZM39.2891 14.3203H37.4531C37.2585 14.3209 37.0721 14.3984 36.9345 14.536C36.7969 14.6736 36.7193 14.8601 36.7188 15.0547V16.8906H35.25V15.0547C35.2494 14.8601 35.1719 14.6736 35.0343 14.536C34.8967 14.3984 34.7102 14.3209 34.5156 14.3203H32.6797V12.8516H34.5156C34.7102 12.851 34.8967 12.7734 35.0343 12.6358C35.1719 12.4982 35.2494 12.3118 35.25 12.1172V10.2812H36.7188V12.1172C36.7193 12.3118 36.7969 12.4982 36.9345 12.6358C37.0721 12.7734 37.2585 12.851 37.4531 12.8516H39.2891V14.3203Z" fill="#2D4356"/>
<path d="M39.2891 12.8516V14.3203H37.4531C37.2585 14.3209 37.0721 14.3984 36.9345 14.536C36.7969 14.6736 36.7193 14.8601 36.7188 15.0547V16.8906H35.25V15.0547C35.2494 14.8601 35.1719 14.6736 35.0343 14.536C34.8967 14.3984 34.7102 14.3209 34.5156 14.3203H32.6797V12.8516H34.5156C34.7102 12.851 34.8967 12.7734 35.0343 12.6358C35.1719 12.4982 35.2494 12.3118 35.25 12.1172V10.2812H36.7188V12.1172C36.7193 12.3118 36.7969 12.4982 36.9345 12.6358C37.0721 12.7734 37.2585 12.851 37.4531 12.8516H39.2891Z" fill="#81D9E3"/>
<path d="M20.5625 3.67188V5.14062H41.8594C42.2488 5.14104 42.6221 5.29592 42.8975 5.57127C43.1728 5.84662 43.3277 6.21997 43.3281 6.60938V20.5625H44.7969V6.60938C44.796 5.83057 44.4862 5.08393 43.9355 4.53323C43.3848 3.98254 42.6382 3.67277 41.8594 3.67188H20.5625Z" fill="#2D4356"/>
<path d="M46.2656 29.375H45.8984V22.7656C45.8979 22.571 45.8203 22.3846 45.6827 22.247C45.5451 22.1094 45.3587 22.0318 45.1641 22.0312H29.7422V23.5H34.1484V29.375H28.2734V13.2188C28.2729 13.0242 28.1953 12.8377 28.0577 12.7001C27.9201 12.5625 27.7337 12.4849 27.5391 12.4844H6.60938C6.41478 12.4849 6.22832 12.5625 6.09072 12.7001C5.95312 12.8377 5.87557 13.0242 5.875 13.2188V29.375H1.46875V23.5H4.40625V22.0312H1.46875V16.1562H4.40625V14.6875H1.46875V8.8125H8.8125V11.0156H10.2812V8.8125H17.625V11.0156H19.0938V0.734375C19.0932 0.539782 19.0156 0.353321 18.878 0.215722C18.7404 0.0781227 18.554 0.000568632 18.3594 0L0.734375 0C0.539782 0.000568632 0.353321 0.0781227 0.215722 0.215722C0.0781227 0.353321 0.000568632 0.539782 0 0.734375L0 33.0469C0.000572486 33.2415 0.0781277 33.4279 0.215726 33.5655C0.353324 33.7031 0.539783 33.7807 0.734375 33.7812H1.46875V46.2656C1.46932 46.4602 1.54688 46.6467 1.68448 46.7843C1.82207 46.9219 2.00853 46.9994 2.20312 47H44.7969C44.9915 46.9994 45.1779 46.9219 45.3155 46.7843C45.4531 46.6467 45.5307 46.4602 45.5312 46.2656V33.7812H46.2656C46.4602 33.7807 46.6467 33.7031 46.7843 33.5655C46.9219 33.4279 46.9994 33.2415 47 33.0469V30.1094C46.9994 29.9148 46.9219 29.7283 46.7843 29.5907C46.6467 29.4531 46.4602 29.3756 46.2656 29.375ZM10.2812 1.46875H17.625V7.34375H10.2812V1.46875ZM1.46875 1.46875H8.8125V7.34375H1.46875V1.46875ZM35.6172 23.5H44.4297V29.375H35.6172V23.5ZM7.34375 13.9531H26.8047V29.375H7.34375V13.9531ZM12.1172 45.5312H7.71094V38.1875H12.1172V45.5312ZM17.9922 45.5312H13.5859V42.5938H14.3203C14.5151 42.5938 14.7019 42.5164 14.8396 42.3787C14.9773 42.2409 15.0547 42.0541 15.0547 41.8594C15.0547 41.6646 14.9773 41.4778 14.8396 41.3401C14.7019 41.2024 14.5151 41.125 14.3203 41.125H13.5859V38.1875H17.9922V45.5312ZM22.7656 45.5312H19.4609V38.1875H20.5625C20.7571 38.1869 20.9436 38.1094 21.0811 37.9718C21.2187 37.8342 21.2963 37.6477 21.2969 37.4531V35.9844C21.2969 35.7896 21.2195 35.6028 21.0818 35.4651C20.9441 35.3274 20.7573 35.25 20.5625 35.25C20.3677 35.25 20.1809 35.3274 20.0432 35.4651C19.9055 35.6028 19.8281 35.7896 19.8281 35.9844V36.7188H5.875V35.9844C5.875 35.7896 5.79763 35.6028 5.65991 35.4651C5.52218 35.3274 5.33539 35.25 5.14062 35.25C4.94586 35.25 4.75907 35.3274 4.62134 35.4651C4.48362 35.6028 4.40625 35.7896 4.40625 35.9844V37.4531C4.40682 37.6477 4.48438 37.8342 4.62198 37.9718C4.75957 38.1094 4.94603 38.1869 5.14062 38.1875H6.24219V45.5312H2.9375V33.7812H22.7656V45.5312ZM28.2734 45.5312H24.2344V42.5938H28.2734V45.5312ZM31.5781 38.1875V41.125H24.2344V38.1875H31.5781ZM24.2344 36.7188V33.7812H28.2734V36.7188H24.2344ZM29.7422 36.7188V33.7812H34.8828V36.7188H29.7422ZM34.8828 45.5312H29.7422V42.5938H34.8828V45.5312ZM40.3906 45.5312H36.3516V42.5938H40.3906V45.5312ZM40.3906 41.125H33.0469V38.1875H40.3906V41.125ZM40.3906 36.7188H36.3516V33.7812H40.3906V36.7188ZM44.0625 45.5312H41.8594V33.7812H44.0625V45.5312ZM45.5312 32.3125H1.46875V30.8438H45.5312V32.3125Z" fill="#2D4356"/>
<path d="M1.46875 30.8438H45.5312V32.3125H1.46875V30.8438Z" fill="#D68751"/>
<path d="M41.8594 33.7812H44.0625V45.5312H41.8594V33.7812Z" fill="#E1EBF4"/>
<path d="M36.3516 33.7812H40.3906V36.7188H36.3516V33.7812Z" fill="#FC785E"/>
<path d="M29.7422 33.7812H34.8828V36.7188H29.7422V33.7812Z" fill="#FC785E"/>
<path d="M24.2344 33.7812H28.2734V36.7188H24.2344V33.7812Z" fill="#FC785E"/>
<path d="M24.2344 38.1875H31.5781V41.125H24.2344V38.1875Z" fill="#FC785E"/>
<path d="M33.0469 38.1875H40.3906V41.125H33.0469V38.1875Z" fill="#FC785E"/>
<path d="M36.3516 42.5938H40.3906V45.5312H36.3516V42.5938Z" fill="#FC785E"/>
<path d="M29.7422 42.5938H34.8828V45.5312H29.7422V42.5938Z" fill="#FC785E"/>
<path d="M24.2344 42.5938H28.2734V45.5312H24.2344V42.5938Z" fill="#FC785E"/>
<path d="M17.9922 38.1875V45.5312H13.5859V42.5938H14.3203C14.5151 42.5938 14.7019 42.5164 14.8396 42.3787C14.9773 42.2409 15.0547 42.0541 15.0547 41.8594C15.0547 41.6646 14.9773 41.4778 14.8396 41.3401C14.7019 41.2024 14.5151 41.125 14.3203 41.125H13.5859V38.1875H17.9922Z" fill="#D68751"/>
<path d="M7.71094 38.1875H12.1172V45.5312H7.71094V38.1875Z" fill="#D68751"/>
<path d="M22.7656 33.7812V45.5312H19.4609V38.1875H20.5625C20.7571 38.1869 20.9436 38.1094 21.0811 37.9718C21.2187 37.8342 21.2963 37.6477 21.2969 37.4531V35.9844C21.2969 35.7896 21.2195 35.6028 21.0818 35.4651C20.9441 35.3274 20.7573 35.25 20.5625 35.25C20.3677 35.25 20.1809 35.3274 20.0432 35.4651C19.9055 35.6028 19.8281 35.7896 19.8281 35.9844V36.7188H5.875V35.9844C5.875 35.7896 5.79763 35.6028 5.65991 35.4651C5.52218 35.3274 5.33539 35.25 5.14062 35.25C4.94586 35.25 4.75907 35.3274 4.62134 35.4651C4.48362 35.6028 4.40625 35.7896 4.40625 35.9844V37.4531C4.40682 37.6477 4.48438 37.8342 4.62198 37.9718C4.75957 38.1094 4.94603 38.1869 5.14062 38.1875H6.24219V45.5312H2.9375V33.7812H22.7656Z" fill="#E1EBF4"/>
<path d="M11.75 16.5234H10.2812C10.0884 16.5234 9.89734 16.5613 9.71912 16.6351C9.5409 16.7089 9.37896 16.8171 9.24257 16.9535C9.10617 17.0899 8.99798 17.2518 8.92419 17.4301C8.8504 17.6083 8.81245 17.7993 8.8125 17.9922V19.4609C8.81245 19.6538 8.8504 19.8448 8.92419 20.0231C8.99799 20.2013 9.10617 20.3632 9.24257 20.4996C9.37897 20.636 9.5409 20.7442 9.71912 20.818C9.89734 20.8918 10.0884 20.9297 10.2812 20.9297H11.75C11.9429 20.9297 12.1339 20.8918 12.3121 20.818C12.4903 20.7442 12.6523 20.636 12.7887 20.4996C12.9251 20.3632 13.0333 20.2013 13.1071 20.0231C13.1808 19.8448 13.2188 19.6538 13.2188 19.4609V17.9922C13.2188 17.7993 13.1809 17.6083 13.1071 17.4301C13.0333 17.2518 12.9251 17.0899 12.7887 16.9535C12.6523 16.8171 12.4904 16.7089 12.3121 16.6351C12.1339 16.5613 11.9429 16.5234 11.75 16.5234ZM11.75 19.4609H10.2812V17.9922H11.75V19.4609Z" fill="#2D4356"/>
<path d="M10.2812 17.9922H11.75V19.4609H10.2812V17.9922Z" fill="#E1EBF4"/>
<path d="M17.625 16.5234H16.1562C15.9634 16.5234 15.7723 16.5613 15.5941 16.6351C15.4159 16.7089 15.254 16.8171 15.1176 16.9535C14.9812 17.0899 14.873 17.2518 14.7992 17.4301C14.7254 17.6083 14.6874 17.7993 14.6875 17.9922V19.4609C14.6874 19.6538 14.7254 19.8448 14.7992 20.0231C14.873 20.2013 14.9812 20.3632 15.1176 20.4996C15.254 20.636 15.4159 20.7442 15.5941 20.818C15.7723 20.8918 15.9634 20.9297 16.1562 20.9297H17.625C17.8179 20.9297 18.0089 20.8918 18.1871 20.818C18.3653 20.7442 18.5273 20.636 18.6637 20.4996C18.8001 20.3632 18.9083 20.2013 18.9821 20.0231C19.0558 19.8448 19.0938 19.6538 19.0938 19.4609V17.9922C19.0938 17.7993 19.0559 17.6083 18.9821 17.4301C18.9083 17.2518 18.8001 17.0899 18.6637 16.9535C18.5273 16.8171 18.3654 16.7089 18.1871 16.6351C18.0089 16.5613 17.8179 16.5234 17.625 16.5234ZM17.625 19.4609H16.1562V17.9922H17.625V19.4609Z" fill="#2D4356"/>
<path d="M16.1562 17.9922H17.625V19.4609H16.1562V17.9922Z" fill="#E1EBF4"/>
<path d="M11.75 22.3984H10.2812C10.0884 22.3984 9.89734 22.4363 9.71912 22.5101C9.5409 22.5839 9.37896 22.6921 9.24257 22.8285C9.10617 22.9649 8.99798 23.1268 8.92419 23.3051C8.8504 23.4833 8.81245 23.6743 8.8125 23.8672V25.3359C8.81245 25.5288 8.8504 25.7198 8.92419 25.8981C8.99799 26.0763 9.10617 26.2382 9.24257 26.3746C9.37897 26.511 9.5409 26.6192 9.71912 26.693C9.89734 26.7668 10.0884 26.8047 10.2812 26.8047H11.75C11.9429 26.8047 12.1339 26.7668 12.3121 26.693C12.4903 26.6192 12.6523 26.511 12.7887 26.3746C12.9251 26.2382 13.0333 26.0763 13.1071 25.8981C13.1808 25.7198 13.2188 25.5288 13.2188 25.3359V23.8672C13.2188 23.6743 13.1809 23.4833 13.1071 23.3051C13.0333 23.1268 12.9251 22.9649 12.7887 22.8285C12.6523 22.6921 12.4904 22.5839 12.3121 22.5101C12.1339 22.4363 11.9429 22.3984 11.75 22.3984ZM11.75 25.3359H10.2812V23.8672H11.75V25.3359Z" fill="#2D4356"/>
<path d="M10.2812 23.8672H11.75V25.3359H10.2812V23.8672Z" fill="#E1EBF4"/>
<path d="M17.625 22.3984H16.1562C15.9634 22.3984 15.7723 22.4363 15.5941 22.5101C15.4159 22.5839 15.254 22.6921 15.1176 22.8285C14.9812 22.9649 14.873 23.1268 14.7992 23.3051C14.7254 23.4833 14.6874 23.6743 14.6875 23.8672V25.3359C14.6874 25.5288 14.7254 25.7198 14.7992 25.8981C14.873 26.0763 14.9812 26.2382 15.1176 26.3746C15.254 26.511 15.4159 26.6192 15.5941 26.693C15.7723 26.7668 15.9634 26.8047 16.1562 26.8047H17.625C17.8179 26.8047 18.0089 26.7668 18.1871 26.693C18.3653 26.6192 18.5273 26.511 18.6637 26.3746C18.8001 26.2382 18.9083 26.0763 18.9821 25.8981C19.0558 25.7198 19.0938 25.5288 19.0938 25.3359V23.8672C19.0938 23.6743 19.0559 23.4833 18.9821 23.3051C18.9083 23.1268 18.8001 22.9649 18.6637 22.8285C18.5273 22.6921 18.3654 22.5839 18.1871 22.5101C18.0089 22.4363 17.8179 22.3984 17.625 22.3984ZM17.625 25.3359H16.1562V23.8672H17.625V25.3359Z" fill="#2D4356"/>
<path d="M16.1562 23.8672H17.625V25.3359H16.1562V23.8672Z" fill="#E1EBF4"/>
<path d="M23.5 16.5234H22.0312C21.8384 16.5234 21.6473 16.5613 21.4691 16.6351C21.2909 16.7089 21.129 16.8171 20.9926 16.9535C20.8562 17.0899 20.748 17.2518 20.6742 17.4301C20.6004 17.6083 20.5624 17.7993 20.5625 17.9922V19.4609C20.5624 19.6538 20.6004 19.8448 20.6742 20.0231C20.748 20.2013 20.8562 20.3632 20.9926 20.4996C21.129 20.636 21.2909 20.7442 21.4691 20.818C21.6473 20.8918 21.8384 20.9297 22.0312 20.9297H23.5C23.6929 20.9297 23.8839 20.8918 24.0621 20.818C24.2404 20.7442 24.4023 20.636 24.5387 20.4996C24.6751 20.3632 24.7833 20.2013 24.8571 20.0231C24.9308 19.8448 24.9688 19.6538 24.9688 19.4609V17.9922C24.9688 17.7993 24.9309 17.6083 24.8571 17.4301C24.7833 17.2518 24.6751 17.0899 24.5387 16.9535C24.4023 16.8171 24.2404 16.7089 24.0621 16.6351C23.8839 16.5613 23.6929 16.5234 23.5 16.5234ZM23.5 19.4609H22.0312V17.9922H23.5V19.4609Z" fill="#2D4356"/>
<path d="M22.0312 17.9922H23.5V19.4609H22.0312V17.9922Z" fill="#E1EBF4"/>
<path d="M23.5 22.3984H22.0312C21.8384 22.3984 21.6473 22.4363 21.4691 22.5101C21.2909 22.5839 21.129 22.6921 20.9926 22.8285C20.8562 22.9649 20.748 23.1268 20.6742 23.3051C20.6004 23.4833 20.5624 23.6743 20.5625 23.8672V25.3359C20.5624 25.5288 20.6004 25.7198 20.6742 25.8981C20.748 26.0763 20.8562 26.2382 20.9926 26.3746C21.129 26.511 21.2909 26.6192 21.4691 26.693C21.6473 26.7668 21.8384 26.8047 22.0312 26.8047H23.5C23.6929 26.8047 23.8839 26.7668 24.0621 26.693C24.2404 26.6192 24.4023 26.511 24.5387 26.3746C24.6751 26.2382 24.7833 26.0763 24.8571 25.8981C24.9308 25.7198 24.9688 25.5288 24.9688 25.3359V23.8672C24.9688 23.6743 24.9309 23.4833 24.8571 23.3051C24.7833 23.1268 24.6751 22.9649 24.5387 22.8285C24.4023 22.6921 24.2404 22.5839 24.0621 22.5101C23.8839 22.4363 23.6929 22.3984 23.5 22.3984ZM23.5 25.3359H22.0312V23.8672H23.5V25.3359Z" fill="#2D4356"/>
<path d="M22.0312 23.8672H23.5V25.3359H22.0312V23.8672Z" fill="#E1EBF4"/>
<path opacity="0.3" d="M1.46875 30.8438H45.5312V31.5781H1.46875V30.8438Z" fill="#E5D0C3"/>
<path opacity="0.3" d="M1.46875 21.2969H4.40625V22.0312H1.46875V21.2969Z" fill="#0F423C"/>
<path opacity="0.3" d="M1.46875 13.9531H4.40625V14.6875H1.46875V13.9531Z" fill="#0F423C"/>
<path opacity="0.3" d="M1.46875 6.60938H8.8125V7.34375H1.46875V6.60938Z" fill="#0F423C"/>
<path opacity="0.3" d="M29.7422 28.6406H34.1484V29.375H29.7422V28.6406Z" fill="#0F423C"/>
<path opacity="0.3" d="M1.46875 28.6406H4.40625V29.375H1.46875V28.6406Z" fill="#0F423C"/>
<path opacity="0.5" d="M36.3516 44.7969H40.3906V45.5312H36.3516V44.7969Z" fill="#A54B3F"/>
<path opacity="0.2" d="M43.3281 6.60938V7.34375C43.3281 7.15086 43.2902 6.95984 43.2164 6.78162C43.1426 6.6034 43.0344 6.44147 42.898 6.30507C42.7616 6.16867 42.5997 6.06049 42.4214 5.98669C42.2432 5.9129 42.0522 5.87495 41.8593 5.875H20.5624V5.14063H41.8593C42.0522 5.14057 42.2432 5.17853 42.4214 5.25232C42.5997 5.32611 42.7616 5.4343 42.898 5.57069C43.0344 5.70709 43.1426 5.86903 43.2164 6.04725C43.2902 6.22547 43.3281 6.41648 43.3281 6.60938Z" fill="#DCCEF2"/>
<path opacity="0.4" d="M1.46875 23.5H4.40625V24.2344H1.46875V23.5Z" fill="#E8FBFC"/>
<path opacity="0.4" d="M1.46875 16.1562H4.40625V16.8906H1.46875V16.1562Z" fill="#E8FBFC"/>
<path opacity="0.4" d="M1.46875 8.8125H8.8125V9.54688H1.46875V8.8125Z" fill="#E8FBFC"/>
<path opacity="0.4" d="M10.2812 8.8125H17.625V9.54688H10.2812V8.8125Z" fill="#E8FBFC"/>
<path opacity="0.3" d="M10.2812 6.60938H17.625V7.34375H10.2812V6.60938Z" fill="#0F423C"/>
<path opacity="0.4" d="M10.2812 1.46875H17.625V2.20312H10.2812V1.46875Z" fill="#E8FBFC"/>
<path opacity="0.4" d="M1.46875 1.46875H8.8125V2.20312H1.46875V1.46875Z" fill="#E8FBFC"/>
<path opacity="0.5" d="M7.34375 13.9531H26.8047V14.6875H7.34375V13.9531Z" fill="#F9EDD2"/>
<path opacity="0.4" d="M29.7422 23.5H34.1484V24.2344H29.7422V23.5Z" fill="#E8FBFC"/>
<path opacity="0.5" d="M35.6172 23.5H44.4297V24.2344H35.6172V23.5Z" fill="white"/>
<path opacity="0.5" d="M35.6172 28.6406H44.4297V29.375H35.6172V28.6406Z" fill="#9FA5AA"/>
<path opacity="0.45" d="M7.34375 28.6406H26.8047V29.375H7.34375V28.6406Z" fill="#AD9359"/>
<path opacity="0.3" d="M13.5859 38.1875H17.9922V38.9219H13.5859V38.1875Z" fill="#E5D0C3"/>
<path opacity="0.3" d="M7.71094 38.1875H12.1172V38.9219H7.71094V38.1875Z" fill="#E5D0C3"/>
<path opacity="0.3" d="M36.3516 42.5938H40.3906V43.3281H36.3516V42.5938Z" fill="#F9DBD7"/>
<path opacity="0.3" d="M29.7422 42.5938H34.8828V43.3281H29.7422V42.5938Z" fill="#F9DBD7"/>
<path opacity="0.3" d="M24.2344 42.5938H28.2734V43.3281H24.2344V42.5938Z" fill="#F9DBD7"/>
<path opacity="0.3" d="M33.0469 38.1875H40.3906V38.9219H33.0469V38.1875Z" fill="#F9DBD7"/>
<path opacity="0.3" d="M24.2344 38.1875H31.5781V38.9219H24.2344V38.1875Z" fill="#F9DBD7"/>
<path opacity="0.5" d="M2.9375 33.7812H22.7656V34.5156H2.9375V33.7812Z" fill="white"/>
<path opacity="0.3" d="M24.2344 33.7812H28.2734V34.5156H24.2344V33.7812Z" fill="#F9DBD7"/>
<path opacity="0.3" d="M29.7422 33.7812H34.8828V34.5156H29.7422V33.7812Z" fill="#F9DBD7"/>
<path opacity="0.3" d="M36.3516 33.7812H40.3906V34.5156H36.3516V33.7812Z" fill="#F9DBD7"/>
<path opacity="0.5" d="M41.8594 33.7812H44.0625V34.5156H41.8594V33.7812Z" fill="white"/>
<path opacity="0.5" d="M36.3516 35.9844H40.3906V36.7188H36.3516V35.9844Z" fill="#A54B3F"/>
<path opacity="0.5" d="M29.7422 35.9844H34.8828V36.7188H29.7422V35.9844Z" fill="#A54B3F"/>
<path opacity="0.5" d="M24.2344 35.9844H28.2734V36.7188H24.2344V35.9844Z" fill="#A54B3F"/>
<path opacity="0.5" d="M24.2344 40.3906H31.5781V41.125H24.2344V40.3906Z" fill="#A54B3F"/>
<path opacity="0.5" d="M33.0469 40.3906H40.3906V41.125H33.0469V40.3906Z" fill="#A54B3F"/>
<path opacity="0.5" d="M41.8594 44.7969H44.0625V45.5312H41.8594V44.7969Z" fill="#9FA5AA"/>
<path opacity="0.5" d="M29.7422 44.7969H34.8828V45.5312H29.7422V44.7969Z" fill="#A54B3F"/>
<path opacity="0.5" d="M24.2344 44.7969H28.2734V45.5312H24.2344V44.7969Z" fill="#A54B3F"/>
<path opacity="0.5" d="M19.4609 44.7969H22.7656V45.5312H19.4609V44.7969Z" fill="#9FA5AA"/>
<path opacity="0.5" d="M2.9375 44.7969H6.24219V45.5312H2.9375V44.7969Z" fill="#9FA5AA"/>
<path opacity="0.4" d="M7.71094 44.7969H12.1172V45.5312H7.71094V44.7969Z" fill="#72492D"/>
<path opacity="0.4" d="M13.5859 44.7969H17.9922V45.5312H13.5859V44.7969Z" fill="#72492D"/>
</g>
<defs>
<clipPath id="clip0_477_1367">
<rect width="47" height="47" fill="white"/>
</clipPath>
</defs>
</svg>
