<svg width="44" height="43" viewBox="0 0 44 43" fill="none" xmlns="http://www.w3.org/2000/svg">
<mask id="mask0_477_1513" style="mask-type:luminance" maskUnits="userSpaceOnUse" x="0" y="0" width="44" height="43">
<path d="M0.897278 0.348518H43.5002V42.9514H0.897278V0.348518Z" fill="white"/>
</mask>
<g mask="url(#mask0_477_1513)">
<path fill-rule="evenodd" clip-rule="evenodd" d="M35.5816 42.3274C36.9874 42.3274 38.1371 41.1802 38.1371 39.7776V16.9211C37.2456 17.0898 7.1085 17.083 6.26044 16.9211V39.7776C6.26044 41.1802 7.41022 42.3274 8.81362 42.3274H35.5816Z" fill="#F9F7F8"/>
<path fill-rule="evenodd" clip-rule="evenodd" d="M35.641 22.6295V41.1734C35.641 41.5885 35.5405 41.9807 35.3622 42.3274H35.5816C36.9873 42.3274 38.137 41.1802 38.137 39.7776V23.0104V16.9211C38.1187 16.9234 38.0913 16.9257 38.0525 16.9302C37.7691 16.953 36.9073 16.9736 35.641 16.9896V22.6295Z" fill="#DDDAEC"/>
<path fill-rule="evenodd" clip-rule="evenodd" d="M7.80328 12.8273L16.137 13.6597L15.0925 8.89553H10.0205C8.79988 8.89553 7.80328 9.88987 7.80328 11.1077V12.8273Z" fill="#FFD772"/>
<path fill-rule="evenodd" clip-rule="evenodd" d="M29.305 8.89557L28.2582 13.6599L36.5942 12.8273V11.1078C36.5942 9.88991 35.5953 8.89557 34.377 8.89557H29.305Z" fill="#FFD772"/>
<path fill-rule="evenodd" clip-rule="evenodd" d="M26.0068 19.277C26.0068 21.3684 27.7188 23.0766 29.8125 23.0766C31.9084 23.0766 33.6204 21.3684 33.6204 19.277C33.6204 21.3684 35.3348 23.0766 37.4285 23.0766C37.6707 23.0766 37.9062 23.0538 38.137 23.0104C39.8947 22.6774 41.2365 21.1266 41.2365 19.277V15.644C41.2365 13.5207 39.5336 12.8274 38.137 12.8274H36.5942H29.0925C27.7233 15.213 25.1496 16.8185 22.1987 16.8185C19.2479 16.8185 16.6718 15.213 15.305 12.8274H7.80325H6.26039C4.86157 12.8274 3.16095 13.5207 3.16095 15.644V19.277C3.16095 21.1266 4.50044 22.6774 6.26039 23.0104C6.48905 23.0538 6.7267 23.0766 6.96675 23.0766C9.0627 23.0766 10.7747 21.3684 10.7747 19.277C10.7747 21.3684 12.489 23.0766 14.5828 23.0766C16.6765 23.0766 18.3907 21.3684 18.3907 19.277C18.3907 21.3684 20.105 23.0766 22.1987 23.0766C24.2924 23.0766 26.0068 21.3684 26.0068 19.277Z" fill="#EB5468"/>
<path fill-rule="evenodd" clip-rule="evenodd" d="M15.3027 12.8274C16.6718 15.2129 19.2479 16.8185 22.1987 16.8185C25.1496 16.8185 27.7233 15.2129 29.0925 12.8274C29.7576 11.6689 30.1393 10.3255 30.1393 8.89559C30.1393 4.51898 26.5828 0.972617 22.1987 0.972617C17.8125 0.972617 14.2581 4.51898 14.2581 8.89559C14.2581 10.3255 14.6375 11.6689 15.3027 12.8274Z" fill="#F9F7F8"/>
<path fill-rule="evenodd" clip-rule="evenodd" d="M35.7759 12.9095C36.9416 13.1467 38.0525 13.9266 38.0525 15.644V18.025V19.277C38.0525 20.8004 37.1427 22.1233 35.8376 22.7276C36.3221 22.9511 36.8616 23.0766 37.4284 23.0766C37.6707 23.0766 37.9062 23.0538 38.137 23.0104C39.8947 22.6774 41.2365 21.1266 41.2365 19.277V15.644C41.2365 13.5207 39.5336 12.8274 38.137 12.8274H36.5942L35.7759 12.9095Z" fill="#E5384F"/>
<path fill-rule="evenodd" clip-rule="evenodd" d="M21.9702 0.974863C25.401 1.84839 27.9405 4.95457 27.9405 8.65146C27.9405 10.0837 27.5588 11.4271 26.8936 12.5856C25.5611 14.9073 23.0833 16.49 20.2285 16.5721C20.8571 16.7318 21.5176 16.8185 22.1988 16.8185C24.8045 16.8185 27.1176 15.5641 28.5645 13.6301C28.7565 13.3747 28.9325 13.1055 29.0925 12.8273C29.7576 11.6688 30.1394 10.3254 30.1394 8.89551C30.1394 4.51897 26.5828 0.972617 22.1988 0.972617C22.121 0.972617 22.0457 0.972616 21.9702 0.974863Z" fill="#DDDAEC"/>
<path fill-rule="evenodd" clip-rule="evenodd" d="M32.8136 26.3698H26.8959C25.977 26.3698 25.225 27.1202 25.225 28.037V42.1929H34.4845V28.037C34.4845 27.1202 33.7325 26.3698 32.8136 26.3698Z" fill="#B1E4F9"/>
<path fill-rule="evenodd" clip-rule="evenodd" d="M21.3827 37.1002V27.9389C21.3827 27.0198 20.6284 26.2672 19.7073 26.2672H11.1427C10.2216 26.2672 9.46954 27.0198 9.46954 27.9389V37.1002C9.46954 38.0193 10.2216 38.7697 11.1427 38.7697H19.7073C20.6284 38.7697 21.3827 38.0193 21.3827 37.1002Z" fill="#B1E4F9"/>
<path fill-rule="evenodd" clip-rule="evenodd" d="M25.2273 27.9389H29.3964H30.3153H30.8981C31.817 27.9389 32.569 28.6892 32.569 29.606V35.6452V42.1929H34.4844V28.037C34.4844 27.1202 33.7324 26.3698 32.8135 26.3698H26.8959C26.009 26.3698 25.2799 27.0677 25.2273 27.9389Z" fill="#75CEF8"/>
<path fill-rule="evenodd" clip-rule="evenodd" d="M13.7667 33.7864L17.0856 31.2526L15.7279 29.4805C15.0284 28.5683 13.7119 28.3927 12.7976 29.0905C11.8856 29.7861 11.7096 31.1021 12.4067 32.012L13.7667 33.7864Z" fill="#EB5468"/>
<path fill-rule="evenodd" clip-rule="evenodd" d="M17.0856 31.2526L13.7667 33.7864L15.1244 35.5585C15.8216 36.4685 17.1404 36.644 18.0525 35.9485C18.9667 35.2529 19.1428 33.9369 18.4433 33.0269L17.0856 31.2526Z" fill="#F9F7F8"/>
<path fill-rule="evenodd" clip-rule="evenodd" d="M14.3976 30.3244L15.7576 32.0964L15.8398 32.2037L17.0856 31.2526L15.7278 29.4806C15.0285 28.5684 13.7119 28.3927 12.7976 29.0906C12.7313 29.1408 12.6696 29.1932 12.6124 29.2503C13.4101 29.029 13.8673 29.6289 14.3976 30.3244Z" fill="#E5384F"/>
<path fill-rule="evenodd" clip-rule="evenodd" d="M17.0856 31.2527L15.8398 32.2037L17.1153 33.8685C17.7621 34.7146 18.0936 35.5744 17.3462 36.2997C17.5953 36.2313 17.8353 36.115 18.0524 35.9485C18.9667 35.2529 19.1427 33.937 18.4433 33.027L17.0856 31.2527Z" fill="#DDDAEC"/>
<path d="M22.1987 16.8185C26.5713 16.8185 30.1393 13.2584 30.1393 8.89551C30.1393 4.53037 26.5713 0.972617 22.1987 0.972617C17.8239 0.972617 14.2581 4.53037 14.2581 8.89551C14.2581 13.2584 17.8239 16.8185 22.1987 16.8185Z" stroke="black" stroke-miterlimit="10" stroke-linecap="round" stroke-linejoin="round"/>
<path fill-rule="evenodd" clip-rule="evenodd" d="M19.7073 29.6105V38.7695C20.6284 38.7695 21.3827 38.0192 21.3827 37.1001V27.9388C21.3827 27.0197 20.6284 26.2671 19.7073 26.2671H11.1427C10.2216 26.2671 9.46954 27.0197 9.46954 27.9388H17.7188C18.6398 27.9388 19.7096 28.6915 19.7073 29.6105Z" fill="#75CEF8"/>
<path d="M12.7976 29.0906C13.7119 28.3927 15.0285 28.5684 15.7278 29.4806C16.6009 30.6209 17.5702 31.8844 18.4433 33.0269C19.1427 33.9369 18.9667 35.2529 18.0524 35.9485C17.1404 36.644 15.8216 36.4685 15.1244 35.5585L12.4067 32.0121C11.7096 31.1021 11.8856 29.7862 12.7976 29.0906Z" stroke="black" stroke-miterlimit="10" stroke-linecap="round" stroke-linejoin="round"/>
<path d="M13.7667 33.7864L17.0856 31.2526" stroke="black" stroke-miterlimit="10" stroke-linecap="round" stroke-linejoin="round"/>
<path fill-rule="evenodd" clip-rule="evenodd" d="M20.6788 10.4098V12.7931C20.6788 12.9163 20.7793 13.0189 20.9027 13.0189H23.4925C23.6159 13.0189 23.7187 12.9163 23.7187 12.7931V10.4098H26.105C26.2284 10.4098 26.3313 10.3095 26.3313 10.1863V7.60238C26.3313 7.47923 26.2284 7.37888 26.105 7.37888H23.7187V4.99562C23.7187 4.87247 23.6159 4.77212 23.4925 4.77212H20.9027C20.7793 4.77212 20.6788 4.87247 20.6788 4.99562V7.37888H18.2902C18.1668 7.37888 18.0662 7.47923 18.0662 7.60238V10.1863C18.0662 10.3095 18.1668 10.4098 18.2902 10.4098H20.6788Z" fill="#EB5468"/>
<path fill-rule="evenodd" clip-rule="evenodd" d="M26.105 7.37895H23.7187V4.99568C23.7187 4.87253 23.6159 4.77218 23.4925 4.77218H21.5267C22.3039 5.9946 22.7541 7.44734 22.7541 9.00277C22.7541 10.435 22.3725 11.7783 21.7073 12.9369C21.6913 12.9643 21.6753 12.9916 21.6593 13.0189H23.4925C23.6159 13.0189 23.7187 12.9163 23.7187 12.7932V10.4099H26.105C26.2284 10.4099 26.3313 10.3096 26.3313 10.1864V7.60244C26.3313 7.4793 26.2284 7.37895 26.105 7.37895Z" fill="#E5384F"/>
<path d="M20.9027 4.77218H23.4925C23.6159 4.77218 23.7187 4.87253 23.7187 4.99568V7.37895H26.105C26.2284 7.37895 26.3313 7.4793 26.3313 7.60244V10.1864C26.3313 10.3096 26.2284 10.4099 26.105 10.4099H23.7187V12.7932C23.7187 12.9163 23.6159 13.0189 23.4925 13.0189H20.9027C20.7794 13.0189 20.6788 12.9163 20.6788 12.7932V10.4099H18.2902C18.1668 10.4099 18.0662 10.3096 18.0662 10.1864V7.60244C18.0662 7.4793 18.1668 7.37895 18.2902 7.37895H20.6788V4.99568C20.6788 4.87253 20.7794 4.77218 20.9027 4.77218Z" stroke="black" stroke-miterlimit="10" stroke-linecap="round" stroke-linejoin="round"/>
<path d="M34.4844 42.3274V28.0369C34.4844 27.1202 33.7347 26.3698 32.8135 26.3698H26.8959C25.977 26.3698 25.225 27.1202 25.225 28.0369V42.3274" stroke="black" stroke-miterlimit="10" stroke-linecap="round" stroke-linejoin="round"/>
<path d="M27.7444 34.2015H27.7279" stroke="black" stroke-miterlimit="10" stroke-linecap="round" stroke-linejoin="round"/>
<path fill-rule="evenodd" clip-rule="evenodd" d="M34.4844 42.3274H41.0352V31.394H34.4844V42.3274Z" fill="#FFD772"/>
<path d="M6.26044 27.6514V23.0104M6.26044 35.4375V30.4361M34.4844 42.3274H10.4205M38.1371 28.4702V31.394M38.1371 23.0104V25.6833" stroke="black" stroke-miterlimit="10" stroke-linecap="round" stroke-linejoin="round"/>
<path fill-rule="evenodd" clip-rule="evenodd" d="M7.50845 34.539C9.50846 34.539 11.145 36.1719 11.145 38.1675V42.3274H3.86957V38.1675C3.86957 36.1719 5.50845 34.539 7.50845 34.539Z" fill="#A7E9A6"/>
<path fill-rule="evenodd" clip-rule="evenodd" d="M8.82043 38.1174V42.275H3.86951V42.3274H9.36212H11.145V38.1926V38.1675C11.145 37.1754 10.7427 36.2746 10.089 35.6178C9.42844 34.9518 8.51414 34.539 7.50839 34.539C7.16782 34.539 6.83873 34.5869 6.52553 34.6736C6.49125 34.685 6.45697 34.6942 6.42269 34.7056C6.45697 34.7169 6.49125 34.7306 6.52553 34.7442C7.86727 35.2803 8.82043 36.5916 8.82043 38.1174Z" fill="#7FDBAE"/>
<path d="M7.50845 34.539C9.50846 34.539 11.145 36.1719 11.145 38.1675V42.3274H3.86957V38.1675C3.86957 36.1719 5.50845 34.539 7.50845 34.539Z" stroke="black" stroke-miterlimit="10" stroke-linecap="round" stroke-linejoin="round"/>
<path d="M9.46954 35.1138V27.9389C9.46954 27.0198 10.2216 26.2672 11.1427 26.2672H19.7073C20.6284 26.2672 21.3827 27.0198 21.3827 27.9389V37.1002C21.3827 38.0193 20.6284 38.7697 19.7073 38.7697H11.145" stroke="black" stroke-miterlimit="10" stroke-linecap="round" stroke-linejoin="round"/>
<path d="M37.129 34.2015H38.3907" stroke="black" stroke-miterlimit="10" stroke-linecap="round" stroke-linejoin="round"/>
<path d="M37.129 36.9429H38.3907" stroke="black" stroke-miterlimit="10" stroke-linecap="round" stroke-linejoin="round"/>
<path d="M37.129 39.6864H38.3907" stroke="black" stroke-miterlimit="10" stroke-linecap="round" stroke-linejoin="round"/>
<path fill-rule="evenodd" clip-rule="evenodd" d="M39.4011 42.3274H41.0354V31.394H39.4011V42.3274Z" fill="#FBBA58"/>
<path d="M34.4844 42.3274H41.0352V31.394H34.4844V42.3274Z" stroke="black" stroke-miterlimit="10" stroke-linecap="round" stroke-linejoin="round"/>
<path fill-rule="evenodd" clip-rule="evenodd" d="M30.8433 8.89555C32.0639 8.89555 33.0605 9.8899 33.0605 11.1077V12.8273H36.5942V11.1077C36.5942 9.8899 35.5953 8.89555 34.377 8.89555H30.8433Z" fill="#FBBA58"/>
<path d="M30.1393 8.89555H34.377C35.5953 8.89555 36.5941 9.8899 36.5941 11.1077V12.8273M7.80322 12.8273V11.1077C7.80322 9.8899 8.79981 8.89555 10.0204 8.89555H14.2581" stroke="black" stroke-miterlimit="10" stroke-linecap="round" stroke-linejoin="round"/>
<path d="M29.0925 12.8273H38.137C39.5336 12.8273 41.2365 13.5207 41.2365 15.6439V19.277C41.2365 21.3684 39.5222 23.0765 37.4285 23.0765C35.3348 23.0765 33.6204 21.3684 33.6204 19.277C33.6204 21.3684 31.9084 23.0765 29.8125 23.0765C27.7188 23.0765 26.0068 21.3684 26.0068 19.277C26.0068 21.3684 24.2924 23.0765 22.1987 23.0765C20.105 23.0765 18.3907 21.3684 18.3907 19.277C18.3907 21.3684 16.6765 23.0765 14.5828 23.0765C12.489 23.0765 10.7747 21.3684 10.7747 19.277C10.7747 21.3684 9.0627 23.0765 6.969 23.0765H6.96675C4.87297 23.0765 3.16095 21.3684 3.16095 19.277V15.6439C3.16095 13.5207 4.86157 12.8273 6.2604 12.8273H15.305" stroke="black" stroke-miterlimit="10" stroke-linecap="round" stroke-linejoin="round"/>
</g>
</svg>
