<svg width="42" height="42" viewBox="0 0 42 42" fill="none" xmlns="http://www.w3.org/2000/svg">
<path d="M20.4985 19.8301C20.6084 18.6452 20.675 15.3351 20.6769 14.0106C20.6863 7.62709 19.3255 4.49368 17.6413 4.49121C15.957 4.48874 14.5872 7.61815 14.5778 14.0016C14.5759 15.3262 14.6327 18.6365 14.7392 19.8217L20.4985 19.8301Z" fill="#FF84A0"/>
<path d="M20.6751 14.0134C20.6731 15.3347 20.6113 18.643 20.5014 19.8274L14.7383 19.8189C14.6935 19.3292 14.6606 18.4808 14.6334 17.5581L14.6733 17.5582C16.9227 17.5615 18.7551 14.5572 18.7605 10.8387C18.7643 8.28167 17.902 6.05397 16.628 4.91316C16.9417 4.62888 17.2836 4.49258 17.6423 4.4931C19.328 4.49558 20.6844 7.62965 20.6751 14.0134Z" fill="#F76189"/>
<path d="M20.4984 20.1258C20.4982 20.1258 20.4986 20.1258 20.4984 20.1258L14.7388 20.1173C14.5859 20.1171 14.4583 20.0004 14.4446 19.8481C14.3403 18.6859 14.28 15.4021 14.2822 14.0013C14.2866 10.9638 14.605 8.4577 15.2025 6.75382C15.944 4.64012 16.9365 4.19556 17.6393 4.19556H17.6418C19.7365 4.19864 20.9816 7.86799 20.9725 14.0111C20.9704 15.4123 20.9007 18.6963 20.7927 19.8575C20.7787 20.0095 20.6511 20.1258 20.4984 20.1258ZM15.0127 19.5264L20.2256 19.5341C20.3196 18.2135 20.3793 15.305 20.3812 14.0102C20.3906 7.64161 19.0118 4.78892 17.641 4.7869C17.6404 4.7869 17.6399 4.7869 17.6395 4.7869C16.9168 4.7869 16.2497 5.55477 15.7605 6.94959C15.1846 8.59148 14.8779 11.0302 14.8735 14.0021C14.8716 15.2965 14.9228 18.2051 15.0127 19.5264Z" fill="#0F0F0F"/>
<path d="M17.6349 12.1059C17.6335 12.1059 17.6324 12.1059 17.6312 12.1059C16.8033 12.1047 16.0302 11.671 15.4545 10.8846C14.8146 10.0105 14.6256 8.827 14.9355 7.63738C15.6764 4.79345 16.8149 4.19556 17.6403 4.19556H17.6428C18.8405 4.19729 19.8122 5.48181 20.3791 7.81264C20.6463 8.9116 20.4286 10.0705 19.7966 10.9128C19.2193 11.6822 18.4516 12.1059 17.6349 12.1059ZM17.6405 4.7869C16.7817 4.7869 16.0045 5.87999 15.5076 7.78656C15.2427 8.80332 15.3973 9.80526 15.9315 10.5353C16.3933 11.1658 16.9972 11.5137 17.632 11.5145H17.6347C18.2609 11.5145 18.8607 11.1749 19.3235 10.5578C19.8505 9.85541 20.0303 8.88147 19.8045 7.95239C19.3158 5.94197 18.5273 4.78815 17.642 4.7869C17.6414 4.7869 17.641 4.7869 17.6405 4.7869Z" fill="#0F0F0F"/>
<path d="M22.569 27.191L22.5548 36.8933C22.5529 38.2088 21.4864 39.2723 20.1709 39.2703L15.0115 39.2628C13.6961 39.2608 12.6327 38.1943 12.6346 36.8788L12.6489 27.1764C12.6497 26.6353 13.0888 26.1919 13.6355 26.1927L21.5853 26.2043C22.1263 26.2051 22.5698 26.6499 22.569 27.191Z" fill="#C3C9FB"/>
<path d="M22.5691 27.1937L22.5549 36.8906C22.553 38.2061 21.4865 39.275 20.171 39.2731L15.0116 39.2656C13.7987 39.2638 12.7978 38.3511 12.6571 37.1777C13.2376 37.4177 13.8581 37.544 14.5016 37.545C17.8558 37.5499 20.5741 36.2056 20.5804 31.9287C20.5837 29.6622 19.8237 27.6227 18.607 26.2028L21.5853 26.2071C22.1264 26.2079 22.5699 26.6471 22.5691 27.1937Z" fill="#8693E2"/>
<path d="M21.5833 19.849L21.574 26.2043L13.647 26.1927L13.6563 19.8374C13.6573 19.148 14.2162 18.5852 14.9109 18.5862L20.3323 18.5942C21.0213 18.5952 21.5843 19.1597 21.5833 19.849Z" fill="#E8FAFC"/>
<path d="M21.5833 19.8462L21.574 26.2071L13.647 26.1955L13.6494 24.5383C13.9512 24.5843 14.2587 24.6075 14.5775 24.608C17.4875 24.6123 19.8481 22.5942 19.8518 20.0942C19.8525 19.5703 19.745 19.0633 19.5522 18.5903L20.3323 18.5914C21.0213 18.5924 21.5843 19.1572 21.5833 19.8462Z" fill="#ABECEF"/>
<path d="M20.1746 39.566C20.1733 39.566 20.1719 39.566 20.1706 39.566L15.0111 39.5584C14.2958 39.5574 13.6242 39.2782 13.1197 38.7721C12.6153 38.2661 12.3382 37.5936 12.3391 36.8784L12.3532 27.1761C12.3545 26.4704 12.9289 25.897 13.6342 25.897H13.636L21.5856 25.9087C22.2919 25.9098 22.8657 26.4852 22.8648 27.1914L22.8505 36.8938C22.8496 37.609 22.5702 38.2808 22.0644 38.7853C21.5593 39.2888 20.8882 39.566 20.1746 39.566ZM13.6342 26.4884C13.2544 26.4884 12.9451 26.797 12.9445 27.1769L12.9305 36.8792C12.9287 38.0288 13.8625 38.9655 15.0119 38.9671L20.1714 38.9747C20.7275 38.9573 21.2524 38.7596 21.6467 38.3665C22.0409 37.9735 22.2584 37.4502 22.2592 36.8929L22.2734 27.1905C22.274 26.8103 21.965 26.5006 21.5849 26.5L13.6352 26.4884C13.6348 26.4884 13.6344 26.4884 13.6342 26.4884Z" fill="#0F0F0F"/>
<path d="M21.5738 26.5C21.5736 26.5 21.574 26.5 21.5738 26.5L13.6465 26.4883C13.4831 26.4881 13.351 26.3555 13.3512 26.1923L13.3604 19.8369C13.3618 18.9837 14.0563 18.2905 14.9091 18.2905H14.9112L20.3326 18.2985C21.1865 18.2997 21.8801 18.9954 21.8789 19.8494L21.8695 26.2048C21.8693 26.3679 21.7369 26.5 21.5738 26.5ZM13.9429 25.8975L21.2785 25.9082L21.2876 19.8485C21.2884 19.3207 20.8595 18.8906 20.3319 18.8899L14.9104 18.8819C14.91 18.8819 14.9094 18.8819 14.9091 18.8819C14.382 18.8819 13.9527 19.3104 13.9518 19.8378L13.9429 25.8975Z" fill="#0F0F0F"/>
<path d="M28.3118 36.2033C34.2268 36.2033 39.0218 31.4082 39.0218 25.4932C39.0218 19.5782 34.2268 14.7831 28.3118 14.7831C22.3967 14.7831 17.6017 19.5782 17.6017 25.4932C17.6017 31.4082 22.3967 36.2033 28.3118 36.2033Z" fill="#5B5476"/>
<path d="M39.0228 25.4949C39.0228 31.4083 34.2251 36.2022 28.3116 36.2022C25.2169 36.2022 22.4297 34.8894 20.4742 32.792C22.0393 33.6869 23.8489 34.1995 25.7807 34.1995C31.698 34.1995 36.4919 29.4056 36.4919 23.4883C36.4919 20.6655 35.3999 18.0992 33.61 16.1871C36.8427 18.0282 39.0228 21.5052 39.0228 25.4949Z" fill="#3F3B5B"/>
<path d="M28.3118 33.312C32.63 33.312 36.1306 29.8114 36.1306 25.4932C36.1306 21.175 32.63 17.6744 28.3118 17.6744C23.9936 17.6744 20.493 21.175 20.493 25.4932C20.493 29.8114 23.9936 33.312 28.3118 33.312Z" fill="white"/>
<path d="M36.1292 25.4949C36.1292 29.8118 32.6284 33.3125 28.3116 33.3125C25.3075 33.3125 22.7017 31.6172 21.3928 29.1336C22.7568 30.3046 24.5348 31.0141 26.4744 31.0141C30.7913 31.0141 34.292 27.5134 34.292 23.1926C34.292 21.8798 33.9687 20.6419 33.3932 19.5537C35.0687 20.9888 36.1292 23.1176 36.1292 25.4949Z" fill="#DDDDDD"/>
<path d="M37.6163 17.7724C37.5331 17.7724 37.4507 17.7376 37.3922 17.6699C36.0699 16.1374 34.3746 14.9558 32.4895 14.2527C32.3365 14.1956 32.2587 14.0254 32.3159 13.8724C32.3729 13.7194 32.5436 13.642 32.6963 13.6987C34.6744 14.4363 36.453 15.676 37.8399 17.2835C37.9466 17.4072 37.9329 17.5939 37.8091 17.7006C37.7533 17.7488 37.6846 17.7724 37.6163 17.7724Z" fill="#0F0F0F"/>
<path d="M31.1426 13.8313C31.1201 13.8313 31.0972 13.8287 31.0745 13.8233C30.8175 13.7625 30.5563 13.7098 30.2979 13.6666C30.1368 13.6396 30.0281 13.4873 30.055 13.3261C30.082 13.1651 30.2361 13.0562 30.3953 13.0833C30.6666 13.1286 30.9409 13.184 31.2104 13.2477C31.3694 13.2853 31.4677 13.4446 31.4302 13.6035C31.398 13.7395 31.2766 13.8313 31.1426 13.8313Z" fill="#0F0F0F"/>
<path d="M28.3118 36.4989C22.2434 36.4989 17.3063 31.5619 17.3063 25.4934C17.3063 19.4249 22.2434 14.4877 28.3118 14.4877C34.3802 14.4877 39.3174 19.4249 39.3174 25.4934C39.3174 31.5619 34.3802 36.4989 28.3118 36.4989ZM28.3118 15.0791C22.5695 15.0791 17.8976 19.7509 17.8976 25.4934C17.8976 31.2358 22.5695 35.9076 28.3118 35.9076C34.0541 35.9076 38.726 31.2358 38.726 25.4934C38.726 19.7509 34.0541 15.0791 28.3118 15.0791Z" fill="#0F0F0F"/>
<path d="M28.3118 33.6079C23.8374 33.6079 20.1971 29.9677 20.1971 25.4934C20.1971 21.0189 23.8374 17.3787 28.3118 17.3787C32.7862 17.3787 36.4264 21.0189 36.4264 25.4934C36.4264 29.9677 32.7862 33.6079 28.3118 33.6079ZM28.3118 17.9701C24.1635 17.9701 20.7885 21.345 20.7885 25.4934C20.7885 29.6416 24.1635 33.0166 28.3118 33.0166C32.4601 33.0166 35.8351 29.6416 35.8351 25.4934C35.8351 21.345 32.4601 17.9701 28.3118 17.9701Z" fill="#0F0F0F"/>
<path d="M39.5723 35.721V35.8037C39.5723 37.7198 38.019 39.2731 36.103 39.2731H20.5231C18.6032 39.2731 17.0499 37.7198 17.0499 35.8037V35.721C17.0499 35.0982 17.5585 34.5935 18.1813 34.5935H38.4408C39.0677 34.5935 39.5723 35.0982 39.5723 35.721Z" fill="#5B5476"/>
<path d="M39.4643 36.6594C39.0819 38.1615 37.7218 39.2733 36.1015 39.2733H20.5215C18.6016 39.2733 17.0483 37.7199 17.0483 35.804V35.7212C17.0483 35.0983 17.5569 34.5938 18.1797 34.5938H18.9288C18.4518 34.7947 18.1955 35.0155 18.1955 35.2442C18.1955 36.3085 23.8646 37.1759 30.8583 37.1759C34.1816 37.1759 37.2014 36.9788 39.4643 36.6594Z" fill="#3F3B5B"/>
<path d="M36.1031 39.5688H20.5233C18.4451 39.5688 16.7544 37.8798 16.7544 35.8037V35.721C16.7544 34.9363 17.3944 34.2979 18.1814 34.2979H38.4409C39.2279 34.2979 39.8681 34.9363 39.8681 35.721V35.8037C39.8681 37.8798 38.1791 39.5688 36.1031 39.5688ZM18.1814 34.8892C17.7205 34.8892 17.3457 35.2624 17.3457 35.721V35.8037C17.3457 37.5537 18.7712 38.9774 20.5233 38.9774H36.1031C37.8531 38.9774 39.2768 37.5537 39.2768 35.8037V35.721C39.2768 35.2624 38.9018 34.8892 38.4409 34.8892H18.1814Z" fill="#0F0F0F"/>
<path d="M23.6534 22.9255C23.5539 22.9255 23.4569 22.8753 23.4011 22.7842C23.3158 22.6449 23.3597 22.4629 23.4989 22.3777L28.2953 19.4418C28.4343 19.357 28.6165 19.4004 28.7018 19.5396C28.7871 19.6789 28.7432 19.8609 28.604 19.9462L23.8076 22.882C23.7595 22.9114 23.7062 22.9255 23.6534 22.9255Z" fill="#0F0F0F"/>
<path d="M25.2303 24.1184C25.1308 24.1184 25.0338 24.0681 24.978 23.9771C24.8927 23.8378 24.9366 23.6558 25.0758 23.5705L28.2953 21.5999C28.4342 21.5151 28.6165 21.5584 28.7018 21.6976C28.7871 21.8369 28.7432 22.0189 28.604 22.1042L25.3845 24.0749C25.3364 24.1043 25.2831 24.1184 25.2303 24.1184Z" fill="#0F0F0F"/>
<path d="M8.96688 24.0241L8.95695 37.6093C8.9556 38.5279 8.21093 39.2704 7.29235 39.2691L3.68971 39.2638C2.77118 39.2624 2.02868 38.5177 2.03003 37.5991L2.03996 24.0139C2.04052 23.6361 2.34716 23.3265 2.72888 23.327L8.27993 23.3352C8.65772 23.3357 8.96744 23.6462 8.96688 24.0241Z" fill="#FFD9B0"/>
<path d="M8.96689 24.026L8.95696 37.6074C8.95561 38.5259 8.21093 39.2723 7.29236 39.271L3.68971 39.2657C2.84278 39.2645 2.14386 38.6272 2.04565 37.8079C2.45101 37.9755 2.8843 38.0637 3.33363 38.0643C5.67574 38.0677 7.57383 37.129 7.57821 34.1427C7.58053 32.5601 7.04984 24.3255 6.20028 23.334L8.27994 23.3371C8.65773 23.3376 8.96745 23.6443 8.96689 24.026Z" fill="#EDB57E"/>
<path d="M8.27862 19.9924L8.27212 23.3351L2.73694 23.327L2.74345 19.9843C2.74415 19.5029 3.13441 19.1099 3.61952 19.1107L7.40507 19.1162C7.8862 19.1169 8.27933 19.5111 8.27862 19.9924Z" fill="#E8FAFC"/>
<path d="M7.29492 39.5647C7.29396 39.5647 7.293 39.5647 7.29204 39.5647L3.68929 39.5595C2.60978 39.5579 1.73296 38.6782 1.7345 37.5987L1.74432 24.0137C1.74509 23.4716 2.18629 23.0313 2.72778 23.0313H2.72932L8.28031 23.0395C8.5421 23.0398 8.78869 23.1428 8.97464 23.3293C9.16078 23.5159 9.263 23.7628 9.26261 24.0245L9.2526 37.6095C9.25183 38.133 9.04759 38.6244 8.67743 38.9935C8.30803 39.362 7.81716 39.5647 7.29492 39.5647ZM2.72797 23.6227C2.5118 23.6227 2.33605 23.7982 2.33566 24.0144L2.32585 37.5993C2.32469 38.3531 2.93683 38.967 3.69006 38.9681L7.29281 38.9734H7.29492C7.65951 38.9734 8.00196 38.8319 8.2599 38.5747C8.51823 38.3172 8.66068 37.9742 8.66126 37.6089L8.67127 24.0238C8.67127 24.0237 8.67127 24.0239 8.67127 24.0238C8.67146 23.9202 8.63046 23.8216 8.55596 23.7469C8.48147 23.6722 8.38329 23.6309 8.27954 23.6308L2.72855 23.6227C2.72835 23.6227 2.72816 23.6227 2.72797 23.6227Z" fill="#0F0F0F"/>
<path d="M8.27204 23.6308C8.27185 23.6308 8.27224 23.6308 8.27204 23.6308L2.73645 23.6227C2.65791 23.6226 2.58284 23.5913 2.5274 23.5358C2.47196 23.4801 2.44097 23.4049 2.44116 23.3264L2.44771 19.9836C2.44867 19.3389 2.97361 18.815 3.61808 18.815H3.61981L7.40543 18.8206C7.71708 18.8211 8.01063 18.9434 8.23181 19.1652C8.45318 19.3872 8.57484 19.6811 8.57426 19.9929L8.56772 23.3357C8.56733 23.4987 8.43509 23.6308 8.27204 23.6308ZM3.03309 23.0318L7.97695 23.039L7.98292 19.9919C7.98311 19.8382 7.92286 19.6929 7.81313 19.5829C7.70341 19.4729 7.55827 19.4121 7.40466 19.4119L3.61904 19.4063C3.61866 19.4063 3.61827 19.4063 3.61808 19.4063C3.29912 19.4063 3.03963 19.6656 3.03905 19.9847L3.03309 23.0318Z" fill="#0F0F0F"/>
<path d="M5.50783 19.4096C5.3446 19.4096 5.21216 19.2773 5.21216 19.114V1.83895C5.21216 1.67561 5.3446 1.54327 5.50783 1.54327C5.67107 1.54327 5.8035 1.67561 5.8035 1.83895V19.114C5.8035 19.2773 5.67107 19.4096 5.50783 19.4096Z" fill="#0F0F0F"/>
<path d="M7.1625 3.6027H3.85292C3.68969 3.6027 3.55725 3.47036 3.55725 3.30703C3.55725 3.14369 3.68969 3.01135 3.85292 3.01135H7.1625C7.32573 3.01135 7.45817 3.14369 7.45817 3.30703C7.45817 3.47036 7.32573 3.6027 7.1625 3.6027Z" fill="#0F0F0F"/>
<path d="M7.90031 5.83854H3.11525C2.95202 5.83854 2.81958 5.7062 2.81958 5.54287C2.81958 5.37953 2.95202 5.24719 3.11525 5.24719H7.90031C8.06354 5.24719 8.19598 5.37953 8.19598 5.54287C8.19598 5.7062 8.06354 5.83854 7.90031 5.83854Z" fill="#0F0F0F"/>
<path d="M7.1625 10.3102H3.85292C3.68969 10.3102 3.55725 10.1779 3.55725 10.0145C3.55725 9.85121 3.68969 9.71887 3.85292 9.71887H7.1625C7.32573 9.71887 7.45817 9.85121 7.45817 10.0145C7.45817 10.1779 7.32573 10.3102 7.1625 10.3102Z" fill="#0F0F0F"/>
<path d="M7.90031 12.5461H3.11525C2.95202 12.5461 2.81958 12.4138 2.81958 12.2504C2.81958 12.0871 2.95202 11.9548 3.11525 11.9548H7.90031C8.06354 11.9548 8.19598 12.0871 8.19598 12.2504C8.19598 12.4138 8.06354 12.5461 7.90031 12.5461Z" fill="#0F0F0F"/>
<path d="M8.96696 8.07438H2.04848C1.88524 8.07438 1.75281 7.94204 1.75281 7.77871C1.75281 7.61537 1.88524 7.48303 2.04848 7.48303H8.96696C9.1302 7.48303 9.26263 7.61537 9.26263 7.77871C9.26263 7.94204 9.1302 8.07438 8.96696 8.07438Z" fill="#0F0F0F"/>
<path d="M5.50562 38.2769L5.51984 30.5591C5.52177 29.2436 6.58824 28.1802 7.90374 28.1821L13.0632 28.1897C14.3786 28.1916 15.4419 29.2582 15.44 30.5737L15.4258 38.2915C15.425 38.8326 14.9858 39.276 14.4392 39.2752L6.48941 39.2635C5.94837 39.2627 5.50482 38.818 5.50562 38.2769Z" fill="#AFF2B6"/>
<path d="M5.50562 38.2742L5.51983 30.5619C5.52176 29.2464 6.58824 28.1775 7.90374 28.1794L13.0632 28.1869C14.2761 28.1887 15.277 29.1014 15.4177 30.2748C14.8371 30.0348 14.2166 29.9085 13.5731 29.9075C10.2189 29.9026 7.50064 31.2469 7.49437 35.5238C7.49105 37.7903 8.25106 37.8453 9.46772 39.2652L6.48941 39.2608C5.94837 39.26 5.50481 38.8208 5.50562 38.2742Z" fill="#7FD685"/>
<path d="M14.4407 39.5709C14.4401 39.5709 14.4394 39.5709 14.4388 39.5709L6.48909 39.5592C5.78283 39.5582 5.209 38.9828 5.20996 38.2765C5.20996 38.2764 5.20996 38.2766 5.20996 38.2765L5.22421 30.5586C5.22517 29.8435 5.50448 29.1718 6.01036 28.6672C6.51662 28.1627 7.18535 27.9008 7.90413 27.8865L13.0636 27.8941C13.7789 27.8951 14.4505 28.1744 14.955 28.6803C15.4596 29.1864 15.7368 29.8589 15.7358 30.5741L15.7216 38.292C15.721 38.6329 15.5878 38.9539 15.3464 39.1955C15.1046 39.4376 14.783 39.5709 14.4407 39.5709ZM5.80131 38.2773C5.80112 38.4601 5.87292 38.6329 6.00381 38.7641C6.13452 38.8952 6.30719 38.9676 6.48986 38.9679L14.4395 38.9795H14.4407C14.6249 38.9795 14.798 38.9078 14.9281 38.7776C15.0582 38.6474 15.13 38.4746 15.1302 38.291L15.1445 30.5731C15.1462 29.4237 14.2122 28.4871 13.0628 28.4854L7.90336 28.4778C7.35282 28.4619 6.82211 28.6929 6.42807 29.086C6.03384 29.479 5.81632 30.0023 5.81555 30.5597L5.80131 38.2773Z" fill="#0F0F0F"/>
<path d="M12.9706 3.81332C12.9706 4.71267 12.2431 5.44013 11.3469 5.44013C10.4475 5.44013 9.72009 4.71267 9.72009 3.81332C9.72009 2.91709 10.4475 2.18964 11.3469 2.18964C12.2431 2.18964 12.9706 2.91709 12.9706 3.81332Z" fill="#DABCBC"/>
<path d="M12.9707 3.81277C12.9707 4.71088 12.2415 5.44012 11.3472 5.44012C10.6448 5.44012 10.0422 4.99104 9.8158 4.36548C10.0614 4.51515 10.3531 4.6034 10.664 4.6034C11.5621 4.6034 12.2913 3.87416 12.2913 2.97605C12.2913 2.78799 12.2607 2.60379 12.1992 2.43488C12.6598 2.71894 12.9707 3.22936 12.9707 3.81277Z" fill="#BC9595"/>
<path d="M11.3468 5.73581C10.2867 5.73581 9.42432 4.87343 9.42432 3.81335C9.42432 2.75501 10.2867 1.89398 11.3468 1.89398C12.4051 1.89398 13.2661 2.75501 13.2661 3.81335C13.2661 4.87343 12.4051 5.73581 11.3468 5.73581ZM11.3468 2.48533C10.6128 2.48533 10.0157 3.0811 10.0157 3.81335C10.0157 4.54734 10.6128 5.14446 11.3468 5.14446C12.079 5.14446 12.6748 4.54734 12.6748 3.81335C12.6748 3.0811 12.079 2.48533 11.3468 2.48533Z" fill="#0F0F0F"/>
<path d="M39.1131 9.31967C37.3286 9.68724 35.925 11.0953 35.5574 12.8798C35.5353 12.9861 35.3936 12.9861 35.3715 12.8798C35.1899 11.9854 34.7471 11.1883 34.1227 10.5684C33.5073 9.94849 32.7102 9.50126 31.8158 9.31967C31.7095 9.29757 31.7095 9.15584 31.8158 9.13374C32.7102 8.95221 33.5073 8.50498 34.1272 7.88501C34.7471 7.26516 35.1899 6.46806 35.3715 5.57366C35.3936 5.46739 35.5353 5.46739 35.5574 5.57366C35.739 6.46806 36.1818 7.26516 36.8017 7.88501C37.4216 8.50498 38.2186 8.95221 39.1131 9.13374C39.2194 9.15584 39.2194 9.29757 39.1131 9.31967Z" fill="#C3C9FB"/>
<path d="M39.115 9.31737C37.3267 9.68464 35.9239 11.0935 35.5566 12.8817C35.5326 12.9841 35.3941 12.9841 35.3699 12.8817C35.1954 12.0268 34.792 11.2621 34.214 10.66C35.5988 10.4071 36.6524 9.22705 36.7127 7.78204C36.7367 7.81817 36.7729 7.85429 36.803 7.8844C37.4231 8.50455 38.2179 8.95009 39.115 9.13072C39.2173 9.1548 39.2173 9.29931 39.115 9.31737Z" fill="#8693E2"/>
<path d="M35.4645 13.2552C35.4644 13.2552 35.4647 13.2552 35.4645 13.2552C35.2778 13.255 35.1204 13.1253 35.0821 12.9396C34.9154 12.1182 34.5117 11.3712 33.9146 10.7782C33.3194 10.1788 32.5738 9.77527 31.7569 9.60943C31.5702 9.57065 31.4404 9.41347 31.4404 9.22685C31.4404 9.04022 31.57 8.88286 31.7555 8.84426C32.5721 8.67853 33.3196 8.27457 33.9182 7.67591C34.5132 7.08081 34.9156 6.33355 35.0819 5.51486C35.1204 5.32824 35.2774 5.1985 35.4642 5.1983C35.6507 5.1983 35.8083 5.32785 35.847 5.51332C36.0135 6.33374 36.4159 7.08101 37.0107 7.67591C37.6093 8.27457 38.3568 8.67853 39.1718 8.84388C39.3589 8.88286 39.4885 9.04022 39.4885 9.22685C39.4885 9.41347 39.3587 9.57065 39.1732 9.60915C39.173 9.60915 39.173 9.60924 39.1728 9.60924C37.4981 9.95419 36.1928 11.2614 35.847 12.9395C35.8083 13.1257 35.6511 13.2552 35.4645 13.2552ZM32.5702 9.22656C33.2283 9.46785 33.8287 9.85265 34.3327 10.36C34.8389 10.8629 35.2235 11.4643 35.4651 12.1255C35.9568 10.7801 37.0164 9.71916 38.3601 9.22714C37.7021 8.98623 37.1002 8.60162 36.5926 8.09401C36.0882 7.58967 35.7054 6.9889 35.4645 6.3297C35.2237 6.98851 34.8409 7.58948 34.3363 8.09401C33.8293 8.60114 33.2279 8.98546 32.5702 9.22656Z" fill="#0F0F0F"/>
</svg>
