<svg width="47" height="47" viewBox="0 0 47 47" fill="none" xmlns="http://www.w3.org/2000/svg">
<path fill-rule="evenodd" clip-rule="evenodd" d="M2.0585 12.7413H44.7841C45.5361 12.7413 46.1565 12.1343 46.1565 11.3906V1.86812C46.1565 1.12059 45.5389 0.508972 44.7841 0.508972H2.0585C1.30655 0.508972 0.686157 1.11597 0.686157 1.85969V11.3822C0.686157 12.1297 1.30371 12.7413 2.0585 12.7413Z" fill="#FFEE88"/>
<path fill-rule="evenodd" clip-rule="evenodd" d="M29.6274 12.7413L30.9997 20.4743H38.5781L35.1473 12.7413H29.6274ZM6.86161 12.7413L0.686157 20.4743H8.2646L11.6954 12.7413H6.86161ZM17.2153 12.7413L15.843 20.4743H23.4213V12.7413H17.2153Z" fill="#FD6A42"/>
<path fill-rule="evenodd" clip-rule="evenodd" d="M35.1473 12.7413L38.5781 20.4743H46.1565L39.981 12.7413H35.1473ZM11.6954 12.7413L8.26465 20.4743H15.843L17.2153 12.7413H11.6954ZM23.4214 12.7413V20.4743H30.9997L29.6274 12.7413H23.4214Z" fill="#FFEE88"/>
<path fill-rule="evenodd" clip-rule="evenodd" d="M46.1565 20.4743H38.5781V24.1515C38.5781 26.0483 40.2831 27.6001 42.3673 27.6001C44.4467 27.6001 46.1488 26.0552 46.1564 24.1642L46.1565 20.4743ZM15.843 24.1514V20.4742H8.26465V24.1514C8.26465 26.0482 9.96974 27.6 12.0539 27.6C14.1379 27.6001 15.843 26.0482 15.843 24.1514ZM30.9998 24.1514V20.4742H23.4214V24.1514C23.4214 26.0482 25.1264 27.6 27.2106 27.6C29.2946 27.6001 30.9998 26.0482 30.9998 24.1514Z" fill="#FFEE88"/>
<path fill-rule="evenodd" clip-rule="evenodd" d="M38.5781 24.1514V20.4742H30.9997V24.1514C30.9997 26.0482 32.7048 27.6 34.789 27.6C36.873 27.6001 38.5781 26.0482 38.5781 24.1514ZM8.2646 24.1514V20.4742H0.686157V24.1514V24.1642C0.693842 26.0552 2.39591 27.6001 4.47538 27.6001C6.55951 27.6001 8.2646 26.0482 8.2646 24.1514ZM23.4213 24.1514V20.4742H15.843V24.1514C15.843 26.0482 17.548 27.6 19.6322 27.6C21.7162 27.6001 23.4213 26.0482 23.4213 24.1514Z" fill="#FD6A42"/>
<path fill-rule="evenodd" clip-rule="evenodd" d="M12.0537 27.6C9.96961 27.6 8.26452 26.0483 8.26452 24.1514C8.26452 26.0483 6.55943 27.6 4.47539 27.6L4.472 30.5912H14.748V38.7461H4.46295L4.45544 45.542L15.1873 45.5421V42.8238H18.6181V34.6688C18.6181 32.0525 20.7796 29.9118 23.4213 29.9118C26.0631 29.9118 28.2246 32.0524 28.2246 34.6688V42.8237H31.6554V45.542H42.3673V38.7461H32.0747V30.5912H42.3673V27.6C40.2832 27.6 38.5781 26.0483 38.5781 24.1514C38.5781 26.0483 36.873 27.6 34.789 27.6C32.7048 27.6 30.9998 26.0483 30.9998 24.1514C30.9998 26.0483 29.2947 27.6 27.2105 27.6C25.1264 27.6 23.4213 26.0483 23.4213 24.1514C23.4213 26.0483 21.7162 27.6 19.6322 27.6C17.5481 27.6 15.843 26.0483 15.843 24.1514C15.843 26.0482 14.1379 27.6 12.0537 27.6Z" fill="white"/>
<path fill-rule="evenodd" clip-rule="evenodd" d="M28.2247 42.8237V34.6687C28.2247 32.0523 26.0632 29.9117 23.4214 29.9117C20.7795 29.9117 18.6182 32.0524 18.6182 34.6687V42.8237H28.2247Z" fill="#53D8F6"/>
<path fill-rule="evenodd" clip-rule="evenodd" d="M32.0746 30.5912V38.7461H42.3673V30.5912H32.0746ZM14.748 30.5912H4.47207L4.46301 38.7461H14.7481L14.748 30.5912Z" fill="#53D8F6"/>
<path d="M31.6554 42.8237H15.1874V45.5419H31.6554V42.8237Z" fill="#BABABE"/>
<path fill-rule="evenodd" clip-rule="evenodd" d="M24.4506 30.0227C22.2991 30.4926 20.6766 32.402 20.6766 34.6687V42.8237H18.618V34.6687C18.6181 31.6284 21.4812 29.374 24.4506 30.0227Z" fill="#00A7E7"/>
<path fill-rule="evenodd" clip-rule="evenodd" d="M9.48608 12.7413H6.86161L0.686157 20.4743H3.31063L9.48608 12.7413Z" fill="#FD3300"/>
<path fill-rule="evenodd" clip-rule="evenodd" d="M2.74467 20.4743H0.686157V24.1514V24.1643C0.693842 26.0552 2.39591 27.6001 4.47538 27.6001C4.83173 27.6001 5.17692 27.5547 5.50454 27.47C3.92077 27.0603 2.75098 25.731 2.74467 24.1642V24.1513V20.4743Z" fill="#FD3300"/>
<path fill-rule="evenodd" clip-rule="evenodd" d="M6.5214 30.5912H4.46289L4.46298 38.7461H6.5215L6.5214 30.5912ZM32.0747 30.5912V38.7461H34.1332V30.5912H32.0747Z" fill="#00A7E7"/>
<path d="M17.2459 42.8237H15.1874V45.542H17.2459V42.8237Z" fill="#7A797F"/>
<path fill-rule="evenodd" clip-rule="evenodd" d="M6.53198 27.0439C5.93867 27.3953 5.2321 27.6 4.47548 27.6L4.4721 30.5912H6.53061L6.53198 27.0439ZM6.52146 38.7461H4.46295L4.45544 45.5419H6.51396L6.52146 38.7461Z" fill="#9EE6FA"/>
<path fill-rule="evenodd" clip-rule="evenodd" d="M2.0585 12.7413H44.7841C45.5361 12.7413 46.1565 12.1343 46.1565 11.3906V10.7026H0.686157V11.3821C0.686157 12.1297 1.30371 12.7413 2.0585 12.7413Z" fill="#FFDF00"/>
<path d="M38.9364 33.3094H40.3088M36.1917 33.3094H37.564" stroke="white" stroke-miterlimit="2.6131"/>
<path d="M0.686157 5.9413V1.86812C0.686157 1.12059 1.30371 0.508972 2.0585 0.508972H44.7841C45.5389 0.508972 46.1565 1.12059 46.1565 1.86812V11.3822C46.1565 12.1297 45.5389 12.7413 44.7841 12.7413H2.0585C1.30371 12.7413 0.686157 12.1297 0.686157 11.3822V7.30045" stroke="black" stroke-miterlimit="22.9256"/>
<path d="M28.1957 9.19935V4.73962H29.2837C29.882 4.73962 30.3715 5.22448 30.3715 5.81707C30.3715 6.40965 29.8819 6.89451 29.2837 6.89451H28.1957" stroke="black" stroke-miterlimit="22.9256"/>
<path d="M28.6309 6.89453L30.4642 8.79797" stroke="black" stroke-miterlimit="22.9256"/>
<path d="M13.6166 4.96227C13.3751 4.8154 12.9688 4.64786 12.5199 4.79954C11.8604 5.02235 11.7369 6.00284 12.4124 6.30557L13.2326 6.67308C14.4826 7.19019 13.9442 8.54644 12.938 8.54644C12.5602 8.54644 12.2279 8.40735 11.9774 8.20429" stroke="black" stroke-miterlimit="10" stroke-linecap="square" stroke-linejoin="round"/>
<path d="M3.71814 9.19944V4.73981H4.80613C5.40447 4.73981 5.89394 5.22466 5.89394 5.81725C5.89394 6.40984 5.40438 6.89469 4.80613 6.89469H3.71814" stroke="black" stroke-miterlimit="22.9256"/>
<path d="M4.15332 6.89459L6.03306 8.79803" stroke="black" stroke-miterlimit="22.9256"/>
<path d="M10.2455 4.73981H8.0697V8.51063H10.2455" stroke="black" stroke-miterlimit="22.9256"/>
<path d="M8.0697 6.62524H9.7016" stroke="black" stroke-miterlimit="22.9256"/>
<path d="M16.7728 4.73981V9.04948" stroke="black" stroke-miterlimit="22.9256"/>
<path d="M15.141 4.73981H18.4047" stroke="black" stroke-miterlimit="2.6131"/>
<path d="M19.3059 8.96884L20.5804 4.73981L20.7228 4.73962L21.9857 8.96884" stroke="black" stroke-miterlimit="10"/>
<path d="M26.02 4.20087V7.43319C26.02 8.02578 25.5305 8.51063 24.9321 8.51063C24.3338 8.51063 23.8442 8.02578 23.8442 7.43319V4.20087" stroke="black" stroke-miterlimit="22.9256"/>
<path d="M32.0947 8.96884L33.3692 4.73981L33.5115 4.73962L34.7745 8.96884" stroke="black" stroke-miterlimit="10"/>
<path d="M36.7909 9.14749V4.7396H36.9398L39.0357 8.45868H39.1846V4.05078" stroke="black" stroke-miterlimit="10"/>
<path d="M42.4482 4.73328V9.04304" stroke="black" stroke-miterlimit="22.9256"/>
<path d="M40.8163 4.73328H44.0801" stroke="black" stroke-miterlimit="2.6131"/>
<path d="M42.3672 38.7461H32.0747V30.5912H42.3673M4.45544 30.5912H14.7481V38.7461H4.45544" stroke="black" stroke-miterlimit="22.9256"/>
<path d="M0 45.542H34.9528M36.3252 45.542H37.6975M39.0699 45.542H46.8426" stroke="black" stroke-miterlimit="22.9256"/>
<path d="M23.4213 29.9117V42.8237" stroke="black" stroke-miterlimit="22.9256"/>
<path d="M28.2247 42.8237V34.6687C28.2247 32.0523 26.0632 29.9117 23.4214 29.9117C20.7795 29.9117 18.6182 32.0524 18.6182 34.6687V42.8237" stroke="black" stroke-miterlimit="22.9256"/>
<path d="M15.843 20.4743V24.1514C15.843 26.0483 14.1379 27.6 12.0537 27.6C9.96962 27.6 8.26453 26.0483 8.26453 24.1514" stroke="black" stroke-miterlimit="22.9256"/>
<path d="M23.4214 20.4743V24.1514C23.4214 26.0483 21.7163 27.6 19.6322 27.6C17.5481 27.6 15.843 26.0483 15.843 24.1514" stroke="black" stroke-miterlimit="22.9256"/>
<path d="M30.9997 20.4743V24.1514C30.9997 26.0483 29.2946 27.6 27.2105 27.6C25.1264 27.6 23.4213 26.0483 23.4213 24.1514" stroke="black" stroke-miterlimit="22.9256"/>
<path d="M38.5781 20.4743V24.1514C38.5781 26.0483 36.873 27.6 34.789 27.6C32.7048 27.6 30.9998 26.0483 30.9998 24.1514" stroke="black" stroke-miterlimit="22.9256"/>
<path d="M0.686157 20.4743H46.1565" stroke="black" stroke-miterlimit="22.9256"/>
<path d="M8.26463 20.4743V24.1514C8.26463 26.0482 6.55954 27.6 4.4755 27.6C2.39137 27.6 0.686279 26.0482 0.686279 24.1514V20.4743L6.86173 12.7414M39.981 12.7413L46.1565 20.4742V24.1513C46.1565 26.0481 44.4514 27.5999 42.3673 27.5999C40.2831 27.5999 38.578 26.0481 38.578 24.1513" stroke="black" stroke-miterlimit="22.9256"/>
<path d="M42.3672 27.6V45.542M4.45544 45.542L4.47548 27.6" stroke="black" stroke-miterlimit="22.9256"/>
<path d="M23.4214 20.4743V12.7414M38.5781 20.4743L35.1474 12.7414M30.9998 20.4743L29.6275 12.7414M8.26465 20.4743L11.6954 12.7414M15.843 20.4743L17.2153 12.7414" stroke="black" stroke-miterlimit="22.9256"/>
<path d="M31.6554 45.542V42.8237H15.1874V45.542" stroke="black" stroke-miterlimit="22.9256"/>
</svg>
