<svg width="45" height="45" viewBox="0 0 45 45" fill="none" xmlns="http://www.w3.org/2000/svg">
<path d="M40.8248 14.6166H4.17529V44.2296H40.8248V14.6166Z" fill="#F3E8CE"/>
<path d="M4.17529 18.9777V25.1089C4.72629 25.5381 5.4158 25.7938 6.1646 25.7938C7.41388 25.7938 8.49883 25.0835 9.0482 24.0399C9.17471 23.7996 9.51835 23.7996 9.64477 24.0399C10.1941 25.0835 11.2791 25.7938 12.5284 25.7938C13.7777 25.7938 14.8626 25.0835 15.412 24.0399C15.5385 23.7996 15.8821 23.7996 16.0086 24.0399C16.5579 25.0835 17.6429 25.7938 18.8922 25.7938C20.1414 25.7938 21.2264 25.0834 21.7758 24.0398C21.9023 23.7995 22.2459 23.7995 22.3723 24.0398C22.9217 25.0834 24.0067 25.7938 25.2559 25.7938C26.5052 25.7938 27.5902 25.0835 28.1395 24.0399C28.266 23.7996 28.6097 23.7996 28.7361 24.0399C29.2855 25.0835 30.3704 25.7938 31.6197 25.7938C32.869 25.7938 33.9539 25.0835 34.5033 24.0399C34.6315 23.7964 34.9707 23.7941 35.0988 24.0377C35.8116 25.3938 37.0187 25.7105 37.7209 25.7747C38.0304 25.803 38.269 26.0619 38.269 26.3766V44.2296H40.8247V18.9777H4.17529Z" fill="#FFD09D"/>
<path d="M18.3258 40.2175H11.3404V37.6292H17.2856C17.8601 37.6292 18.3258 38.1008 18.3258 38.6826V40.2175Z" fill="#FF678D"/>
<path d="M17.2857 37.6292H14.73C15.3045 37.6292 15.7702 38.1008 15.7702 38.6826V40.2175H18.3258V38.6826C18.3258 38.1008 17.8602 37.6292 17.2857 37.6292Z" fill="#FF5079"/>
<path d="M26.6742 40.2175H33.6596V37.6292H27.7143C27.1399 37.6292 26.6742 38.1008 26.6742 38.6826V40.2175Z" fill="#FF678D"/>
<path d="M33.6596 37.6292H30.4697V40.2175H33.6596V37.6292Z" fill="#FF5079"/>
<path d="M16.9976 34.869H28.0025C28.473 34.869 28.8543 34.4827 28.8543 34.0062V33.1434C28.8543 32.6669 28.473 32.2806 28.0025 32.2806H16.9976C16.5271 32.2806 16.1457 32.6669 16.1457 33.1434V34.0062C16.1457 34.4827 16.5271 34.869 16.9976 34.869Z" fill="#FF678D"/>
<path d="M28.0025 32.2808H25.4468C25.9173 32.2808 26.2987 32.667 26.2987 33.1436V34.0064C26.2987 34.4828 25.9173 34.8692 25.4468 34.8692H28.0025C28.473 34.8692 28.8543 34.4828 28.8543 34.0064V33.1436C28.8543 32.667 28.473 32.2808 28.0025 32.2808Z" fill="#FF5079"/>
<path d="M42.9703 16.3894H2.02974C1.81652 16.3894 1.65568 16.1934 1.69479 15.9812L2.50875 11.5541C2.73408 10.3284 3.79023 9.43951 5.0212 9.43951H39.979C41.21 9.43951 42.2661 10.3284 42.4914 11.5541L43.3054 15.9812C43.3443 16.1934 43.1835 16.3894 42.9703 16.3894Z" fill="#D56853"/>
<path d="M11.0422 15.671H33.9578C36.0715 15.671 37.7912 13.9292 37.7912 11.7884V9.43939H7.2088V11.7884C7.2088 13.9292 8.92849 15.671 11.0422 15.671Z" fill="#C65646"/>
<path d="M33.9577 13.0826H11.0422C10.3365 13.0826 9.7644 12.5031 9.7644 11.7884V2.64271C9.7644 1.92797 10.3365 1.34851 11.0422 1.34851H33.9577C34.6634 1.34851 35.2355 1.92797 35.2355 2.64271V11.7884C35.2355 12.5031 34.6634 13.0826 33.9577 13.0826Z" fill="#F3E8CE"/>
<path d="M33.9577 1.34851H31.4021C32.1078 1.34851 32.6799 1.92797 32.6799 2.64271V11.7884C32.6799 12.5031 32.1078 13.0826 31.4021 13.0826H33.9577C34.6634 13.0826 35.2355 12.5031 35.2355 11.7884V2.64271C35.2355 1.92797 34.6634 1.34851 33.9577 1.34851Z" fill="#FFD09D"/>
<path d="M6.16458 23.2056C4.36022 23.2056 2.89746 21.7241 2.89746 19.8966V16.3895H9.43162V19.8966C9.43162 21.7241 7.96894 23.2056 6.16458 23.2056Z" fill="#4F66D0"/>
<path d="M12.6988 23.2056C10.8944 23.2056 9.43164 21.7241 9.43164 19.8966V16.3895H15.9658V19.8966C15.9659 21.7241 14.5031 23.2056 12.6988 23.2056Z" fill="#FF678D"/>
<path d="M19.2329 23.2056C17.4285 23.2056 15.9658 21.7241 15.9658 19.8966V16.3895H22.5V19.8966C22.5 21.7241 21.0372 23.2056 19.2329 23.2056Z" fill="#4F66D0"/>
<path d="M25.7672 23.2056C23.9628 23.2056 22.5001 21.7241 22.5001 19.8966V16.3895H29.0342V19.8966C29.0342 21.7241 27.5715 23.2056 25.7672 23.2056Z" fill="#FF678D"/>
<path d="M32.3013 23.2056C30.4969 23.2056 29.0342 21.7241 29.0342 19.8966V16.3895H35.5683V19.8966C35.5684 21.7241 34.1057 23.2056 32.3013 23.2056Z" fill="#4F66D0"/>
<path d="M38.8355 23.2056C37.0311 23.2056 35.5684 21.7241 35.5684 19.8966V16.3895H42.1025V19.8966C42.1026 21.7241 40.6398 23.2056 38.8355 23.2056Z" fill="#FF678D"/>
<path d="M39.5469 16.3893V19.8964C39.5469 21.2647 38.727 22.4389 37.5576 22.9426C37.9502 23.1118 38.382 23.2055 38.8354 23.2055C40.6398 23.2055 42.1026 21.724 42.1026 19.8964V16.3893H39.5469Z" fill="#FF5079"/>
<path d="M33.0128 16.3893V19.8964C33.0128 21.2647 32.1929 22.4389 31.0235 22.9426C31.416 23.1118 31.8479 23.2055 32.3013 23.2055C34.1057 23.2055 35.5684 21.724 35.5684 19.8964V16.3893H33.0128Z" fill="#314DC9"/>
<path d="M26.4786 16.3893V19.8964C26.4786 21.2647 25.6586 22.4389 24.4893 22.9426C24.8818 23.1118 25.3136 23.2055 25.7671 23.2055C27.5714 23.2055 29.0342 21.724 29.0342 19.8964V16.3893H26.4786Z" fill="#FF5079"/>
<path d="M19.9444 16.3893V19.8964C19.9444 21.2647 19.1245 22.4389 17.9551 22.9426C18.3476 23.1118 18.7794 23.2055 19.2329 23.2055C21.0373 23.2055 22.5 21.724 22.5 19.8964V16.3893H19.9444Z" fill="#314DC9"/>
<path d="M13.4102 16.3893V19.8964C13.4102 21.2647 12.5903 22.4389 11.4209 22.9426C11.8134 23.1118 12.2453 23.2055 12.6987 23.2055C14.5031 23.2055 15.9658 21.724 15.9658 19.8964V16.3893H13.4102Z" fill="#FF5079"/>
<path d="M6.87596 16.3893V19.8964C6.87596 21.2647 6.05603 22.4389 4.88666 22.9426C5.2792 23.1118 5.71102 23.2055 6.16447 23.2055C7.96883 23.2055 9.43159 21.724 9.43159 19.8964V16.3893H6.87596Z" fill="#314DC9"/>
<path d="M40.8247 36.2684V44.2296H4.17523V22.5216" stroke="black" stroke-miterlimit="10" stroke-linecap="round" stroke-linejoin="round"/>
<path d="M40.8247 22.5216V33.2486" stroke="black" stroke-miterlimit="10" stroke-linecap="round" stroke-linejoin="round"/>
<path d="M18.3258 40.2175H11.3404V37.6292H17.2856C17.8601 37.6292 18.3258 38.1008 18.3258 38.6826V40.2175Z" stroke="black" stroke-miterlimit="10" stroke-linecap="round" stroke-linejoin="round"/>
<path d="M11.3404 33.3057V44.2296" stroke="black" stroke-miterlimit="10" stroke-linecap="round" stroke-linejoin="round"/>
<path d="M18.3258 38.9235V44.2297" stroke="black" stroke-miterlimit="10" stroke-linecap="round" stroke-linejoin="round"/>
<path d="M26.6742 40.2175H33.6596V37.6292H27.7143C27.1399 37.6292 26.6742 38.1008 26.6742 38.6826V40.2175Z" stroke="black" stroke-miterlimit="10" stroke-linecap="round" stroke-linejoin="round"/>
<path d="M33.6596 33.3057V44.2296" stroke="black" stroke-miterlimit="10" stroke-linecap="round" stroke-linejoin="round"/>
<path d="M26.6742 38.9235V44.2297" stroke="black" stroke-miterlimit="10" stroke-linecap="round" stroke-linejoin="round"/>
<path d="M22.5 44.2296V34.869" stroke="black" stroke-miterlimit="10" stroke-linecap="round" stroke-linejoin="round"/>
<path d="M43.6692 44.2296H1.33087" stroke="black" stroke-miterlimit="10" stroke-linecap="round" stroke-linejoin="round"/>
<path d="M16.9976 34.869H28.0025C28.473 34.869 28.8543 34.4827 28.8543 34.0062V33.1434C28.8543 32.6669 28.473 32.2806 28.0025 32.2806H16.9976C16.5271 32.2806 16.1457 32.6669 16.1457 33.1434V34.0062C16.1457 34.4827 16.5271 34.869 16.9976 34.869Z" stroke="black" stroke-miterlimit="10" stroke-linecap="round" stroke-linejoin="round"/>
<path d="M35.2356 9.43982H39.9788C41.2098 9.43982 42.2661 10.3285 42.491 11.5537L43.3054 15.9807C43.3446 16.1929 43.1836 16.3897 42.9706 16.3897H2.02941C1.81644 16.3897 1.65543 16.1929 1.69462 15.9807L2.50902 11.5537C2.73391 10.3285 3.79024 9.43982 5.0212 9.43982H9.76446" stroke="black" stroke-miterlimit="10" stroke-linecap="round" stroke-linejoin="round"/>
<path d="M18.5059 13.0826H11.0422C10.3365 13.0826 9.7644 12.5031 9.7644 11.7884V2.64271C9.7644 1.92797 10.3365 1.34851 11.0422 1.34851H33.9577C34.6634 1.34851 35.2355 1.92797 35.2355 2.64271V11.7884C35.2355 12.5031 34.6634 13.0826 33.9577 13.0826H21.4875" stroke="black" stroke-miterlimit="10" stroke-linecap="round" stroke-linejoin="round"/>
<path d="M19.7838 9.374L21.361 5.17984C21.3932 5.10004 21.5048 5.09995 21.5371 5.17967L23.1 9.374" stroke="black" stroke-miterlimit="10" stroke-linecap="round" stroke-linejoin="round"/>
<path d="M20.2756 8.32953H22.616" stroke="black" stroke-miterlimit="10" stroke-linecap="round" stroke-linejoin="round"/>
<path d="M26.8444 5.08826H25.1545V9.31114" stroke="black" stroke-miterlimit="10" stroke-linecap="round" stroke-linejoin="round"/>
<path d="M25.1545 7.15967H26.7102" stroke="black" stroke-miterlimit="10" stroke-linecap="round" stroke-linejoin="round"/>
<path d="M30.5287 5.09595H28.7751V9.31115H30.5287" stroke="black" stroke-miterlimit="10" stroke-linecap="round" stroke-linejoin="round"/>
<path d="M30.3995 7.20349H28.7751" stroke="black" stroke-miterlimit="10" stroke-linecap="round" stroke-linejoin="round"/>
<path d="M17.7455 5.42031C17.4103 5.19097 17.0062 5.05707 16.5713 5.05707C15.4114 5.05707 14.4711 6.00934 14.4711 7.18413C14.4711 8.35891 15.4113 9.31118 16.5713 9.31118C17.0424 9.31118 17.4298 9.15407 17.7239 8.88884C17.7847 8.83397 17.8416 8.77444 17.8943 8.71076" stroke="black" stroke-miterlimit="10" stroke-linecap="round" stroke-linejoin="round"/>
<path d="M6.16458 23.2056C4.36022 23.2056 2.89746 21.7241 2.89746 19.8966V16.3895H9.43162V19.8966C9.43162 21.7241 7.96894 23.2056 6.16458 23.2056Z" stroke="black" stroke-miterlimit="10" stroke-linecap="round" stroke-linejoin="round"/>
<path d="M12.6987 23.2056C10.8943 23.2056 9.43158 21.7241 9.43158 19.8966V16.3895H15.9657V19.8966C15.9658 21.7241 14.5031 23.2056 12.6987 23.2056Z" stroke="black" stroke-miterlimit="10" stroke-linecap="round" stroke-linejoin="round"/>
<path d="M19.2329 23.2056C17.4285 23.2056 15.9658 21.7241 15.9658 19.8966V16.3895H22.5V19.8966C22.5 21.7241 21.0372 23.2056 19.2329 23.2056Z" stroke="black" stroke-miterlimit="10" stroke-linecap="round" stroke-linejoin="round"/>
<path d="M25.7671 23.2056C23.9628 23.2056 22.5 21.7241 22.5 19.8966V16.3895H29.0342V19.8966C29.0342 21.7241 27.5715 23.2056 25.7671 23.2056Z" stroke="black" stroke-miterlimit="10" stroke-linecap="round" stroke-linejoin="round"/>
<path d="M32.3012 23.2056C30.4969 23.2056 29.0341 21.7241 29.0341 19.8966V16.3895H35.5683V19.8966C35.5684 21.7241 34.1056 23.2056 32.3012 23.2056Z" stroke="black" stroke-miterlimit="10" stroke-linecap="round" stroke-linejoin="round"/>
<path d="M38.8354 23.2056C37.0311 23.2056 35.5683 21.7241 35.5683 19.8966V16.3895H42.1025V19.8966C42.1025 21.7241 40.6398 23.2056 38.8354 23.2056Z" stroke="black" stroke-miterlimit="10" stroke-linecap="round" stroke-linejoin="round"/>
</svg>
